<?xml version="1.0" encoding="utf-8"?>
<!-- Generator: Adobe Illustrator 19.1.0, SVG Export Plug-In . SVG Version: 6.00 Build 0)  -->
<!DOCTYPE svg PUBLIC "-//W3C//DTD SVG 1.1//EN" "http://www.w3.org/Graphics/SVG/1.1/DTD/svg11.dtd">
<svg version="1.1" id="Layer_1" xmlns="http://www.w3.org/2000/svg" xmlns:xlink="http://www.w3.org/1999/xlink" x="0px" y="0px"
	 viewBox="0 0 841.89 842" style="enable-background:new 0 0 841.89 842;" xml:space="preserve">
<circle style="fill:#CF000F;" cx="420.945" cy="421" r="421"/>
<g>
	<path style="fill:#F2F2F2;" d="M456.456,513.973c-24.668-80.723-49-160.348-73.673-241.085
		c-7.934,17.641-15.365,34.155-22.789,50.673c-10.023,22.302-20.116,44.574-29.979,66.946c-1.5,3.401-3.292,4.558-7.033,4.549
		c-58.978-0.128-117.956-0.125-176.934-0.007c-3.682,0.007-5.575-0.989-7.059-4.492c-10.94-25.823-18.591-52.248-17.92-80.719
		c1.753-74.325,59.666-141.655,133.022-152.943c68.07-10.474,121.958,14.028,162.829,68.697c1.275,1.706,2.431,3.501,3.998,5.769
		c1.421-1.95,2.564-3.489,3.677-5.049c26.952-37.784,62.754-61.779,108.783-69.865c70.321-12.353,142.804,26.013,172.613,91.313
		c20.381,44.648,19.08,89.332,0.572,134.144c-5.374,13.011-5.25,13.062-19.224,13.062c-55.646,0-111.292,0.057-166.938-0.111
		c-4.345-0.013-6.384,1.412-8.228,5.224c-17.463,36.087-35.134,72.074-52.751,108.087
		C458.629,509.786,457.783,511.378,456.456,513.973z"/>
	<path style="fill:#F2F2F2;" d="M692.235,415.257c-9.57,14.736-18.028,28.656-27.367,41.957
		c-20.358,28.996-44.142,55.116-69.244,80.025c-53.516,53.104-109.853,102.991-169.977,148.552c-3.557,2.695-5.644,2.791-9.253,0.04
		c-67.702-51.618-131.27-107.879-190.107-169.412c-27.355-28.608-51.968-59.414-71.57-93.98c-0.985-1.737-1.94-3.49-2.879-5.252
		c-0.225-0.423-0.329-0.91-0.788-2.225c2.218,0,4.095,0,5.973,0c59.483,0,118.967-0.044,178.45,0.095
		c4.104,0.01,6.059-1.219,7.732-5.019c10.929-24.813,22.152-49.497,33.295-74.216c0.72-1.596,1.575-3.131,2.858-5.663
		c24.356,79.674,48.389,158.292,72.733,237.929c1.306-2.486,2.15-4,2.912-5.555c23.341-47.663,46.68-95.328,69.993-143.005
		c1.259-2.574,2.208-4.679,5.983-4.668c52.318,0.155,104.637,0.105,156.956,0.113C688.741,414.97,689.545,415.073,692.235,415.257z"
		/>
</g>
</svg>
