<?xml version="1.0" encoding="utf-8"?>
<!-- Generator: Adobe Illustrator 19.1.0, SVG Export Plug-In . SVG Version: 6.00 Build 0)  -->
<!DOCTYPE svg PUBLIC "-//W3C//DTD SVG 1.1//EN" "http://www.w3.org/Graphics/SVG/1.1/DTD/svg11.dtd">
<svg version="1.1" id="Layer_1" xmlns="http://www.w3.org/2000/svg" xmlns:xlink="http://www.w3.org/1999/xlink" x="0px" y="0px"
	 viewBox="0 0 479.703 432.283" style="enable-background:new 0 0 479.703 432.283;" xml:space="preserve">
<g>
	<path style="fill:#CF000F;" d="M172.036,341.058c-15.943,11.822-27.617,24.854-36.203,40.62
		c-8.565,15.728-13.095,32.599-14.212,50.605c-40.645,0-80.879,0-121.62,0c-0.061-10.764,2.143-20.941,5.72-30.746
		c12.979-35.575,37.422-59.454,73.459-71.451c2.559-0.852,6.314-3.056,6.482-4.907c0.216-2.37-2.132-5.612-4.26-7.456
		c-16.178-14.021-21.444-36.396-12.828-55.849c8.653-19.536,29.193-31.066,50.369-28.276c20.724,2.731,38.011,19.321,40.969,40.099
		c2.536,17.815-3.295,32.722-16.973,44.618c-1.873,1.629-3.96,4.805-3.55,6.762c0.411,1.963,3.609,3.779,5.957,4.823
		C153.789,333.658,162.387,337.062,172.036,341.058z"/>
	<path style="fill:#CF000F;" d="M479.584,432.255c-40.431,0-80.683,0-121.52,0c-2.702-37.391-19.083-67.565-50.399-91.185
		c9.282-3.884,17.687-7.245,25.94-10.947c2.521-1.131,5.592-2.715,6.696-4.942c1.759-3.547-1.874-5.457-4.251-7.485
		c-17.333-14.783-22.021-38.977-11.432-58.911c10.576-19.909,33.623-29.87,55.16-23.84c21.721,6.082,36.441,26.23,35.234,48.68
		c-0.732,13.632-6.57,24.862-16.763,33.998c-2.132,1.911-4.869,5.219-4.457,7.321c0.419,2.138,4.136,4.357,6.83,5.212
		c44.354,14.076,75.753,53.626,79.07,99.941C479.737,430.723,479.633,431.358,479.584,432.255z"/>
	<path style="fill:#CF000F;" d="M344.407,226.728c-37.266,17.193-48.399,63.219-20.615,94.618
		c-8.083,4.371-16.159,8.796-24.319,13.059c-0.801,0.419-2.234,0.102-3.184-0.31c-7.908-3.428-15.772-6.959-23.842-10.544
		c15.837-13.525,23.697-30.72,19.725-51.98c-3.967-21.232-17.256-34.627-38.796-42.255c4.62-1.631,8.202-2.566,11.468-4.153
		c2.635-1.281,6.417-3.02,6.876-5.16c0.449-2.093-2.175-5.497-4.291-7.383c-16.381-14.597-22.835-32.72-18.011-53.968
		c4.682-20.624,17.89-34.258,38.263-40.275c24.206-7.149,50.018,3.648,62.482,25.691c12.468,22.053,8.143,49.421-10.551,66.676
		c-1.223,1.129-2.806,1.975-3.725,3.297c-1.234,1.777-2.964,4.057-2.664,5.81c0.297,1.733,2.662,3.393,4.475,4.506
		C339.479,225.453,341.709,225.819,344.407,226.728z"/>
	<path style="fill:#CF000F;" d="M223.71,229.838c-40.101,14.686-51.13,65.349-16.864,93.815
		c-8.036,3.589-16.122,7.254-24.276,10.761c-0.857,0.369-2.27,0.093-3.166-0.378c-7.894-4.144-15.73-8.399-23.511-12.583
		c28.586-31.941,15.408-80.083-21.771-95.323c0.177-0.211,0.308-0.524,0.523-0.602c10.227-3.69,10.756-6.413,2.609-13.503
		c-18.475-16.079-24.13-41.525-14.126-63.558c9.997-22.015,33.121-34.941,56.974-31.849c23.649,3.066,43.119,21.638,46.729,45.494
		c2.946,19.466-3.048,36.14-17.748,49.478c-1.108,1.005-2.36,1.853-3.46,2.866c-4.001,3.679-3.081,8.074,2.103,9.908
		C212.728,226.133,217.763,227.806,223.71,229.838z"/>
	<path style="fill:#CF000F;" d="M277.416,110.313c-21.462,10.009-34.608,26.33-39.692,50.232
		c-5.053-23.884-18.106-40.097-39.892-50.329c2.077-0.789,3.456-1.33,4.847-1.839c5.701-2.088,6.532-6.627,1.722-10.491
		C193.31,88.975,186.303,77.73,183.83,63.62c-5.105-29.131,14.653-57.036,44.555-62.727c28.29-5.385,57.29,14.177,62.753,42.608
		c3.965,20.629-1.94,38.167-17.613,52.24c-8.149,7.317-7.808,9.778,2.25,13.628C276.167,109.519,276.513,109.788,277.416,110.313z"
		/>
	<path style="fill:#CF000F;" d="M219.686,216.547c9.253-9.846,15.231-21.137,18.002-35.733c2.924,14.472,8.71,25.848,18.101,35.697
		c-5.853,2.702-11.179,5.24-16.59,7.583c-0.907,0.393-2.31,0.249-3.259-0.163C230.659,221.638,225.447,219.186,219.686,216.547z"/>
	<path style="fill:#CF000F;" d="M54.555,297.288c5.265,9.068,9.804,16.885,14.296,24.62c-7.082,3.511-14.598,7.238-23.773,11.787
		C48.4,320.932,51.432,309.287,54.555,297.288z"/>
	<path style="fill:#CF000F;" d="M410.289,321.888c4.022-6.274,7.851-12.248,12.37-19.298c2.404,9.527,4.668,18.497,7.194,28.507
		C422.508,327.639,416.397,324.763,410.289,321.888z"/>
	<path style="fill:#CF000F;" d="M365.502,223.445c-6.039-2.461-10.838-4.416-15.949-6.499c3.911-5.43,7.698-10.688,12.262-17.024
		C363.078,207.983,364.181,215.016,365.502,223.445z"/>
	<path style="fill:#CF000F;" d="M109.931,223.41c1.377-8.555,2.511-15.598,3.776-23.453c4.448,6.177,8.189,11.372,12.217,16.964
		C120.941,218.942,116.076,220.916,109.931,223.41z"/>
</g>
</svg>
