<?xml version="1.0" encoding="utf-8"?>
<!-- Generator: Adobe Illustrator 19.1.0, SVG Export Plug-In . SVG Version: 6.00 Build 0)  -->
<!DOCTYPE svg PUBLIC "-//W3C//DTD SVG 1.1//EN" "http://www.w3.org/Graphics/SVG/1.1/DTD/svg11.dtd">
<svg version="1.1" id="Layer_1" xmlns="http://www.w3.org/2000/svg" xmlns:xlink="http://www.w3.org/1999/xlink" x="0px" y="0px"
	 viewBox="0 0 841.89 842" style="enable-background:new 0 0 841.89 842;" xml:space="preserve">
<circle style="fill:#CF000F;" cx="420.945" cy="421" r="421"/>
<g>
	<path style="fill:#F2F2F2;" d="M420.746,211.436c19.213-17.493,40.889-29.796,65.443-36.9
		c94.393-27.308,192.348,34.638,207.161,131.755c8.08,52.971-5.936,100.37-43.577,138.672
		c-75.089,76.407-151.289,151.721-227.036,227.48c-0.566,0.566-1.211,1.054-2.007,1.74c-1.347-1.26-2.571-2.341-3.724-3.493
		C343.23,596.964,269.5,523.192,195.668,449.523c-27.645-27.584-44.924-60.516-48.453-99.378
		c-5.982-65.876,18.451-118.746,73.541-155.435c60.977-40.61,140.11-34.438,195.818,13.176
		C417.833,208.962,419.096,210.032,420.746,211.436z M420.16,252.471c-7.396-7.943-13.478-15.541-20.613-21.97
		c-57.388-51.716-148.191-43.776-195.957,16.92c-43.316,55.043-38.683,131.374,11.285,181.455
		c67.319,67.472,134.806,134.777,202.229,202.146c1.142,1.141,2.38,2.187,3.64,3.338c0.763-0.626,1.304-0.997,1.76-1.453
		c69.274-69.287,138.969-138.162,207.619-208.062c31.436-32.009,43.017-71.968,35.029-115.965
		c-9.608-52.924-40.906-89.405-92.123-105.82c-51.201-16.41-97.269-4.47-136.598,32.372
		C431.218,240.316,426.533,245.765,420.16,252.471z"/>
	<path style="fill:#F2F2F2;" d="M326.775,348.702c11.646,0,23.295-0.151,34.937,0.056c7.062,0.126,12.06,4.444,13.606,11.011
		c1.334,5.668-1.368,11.966-6.551,14.953c-1.271,0.733-2.761,1.537-4.153,1.543c-25.596,0.105-51.196,0.349-76.784-0.075
		c-6.258-0.104-10.69-6.13-11.114-12.262c-0.442-6.405,2.927-12.128,8.783-14.175c2.291-0.801,4.88-1.012,7.337-1.034
		c11.312-0.103,22.626-0.046,33.94-0.046C326.775,348.683,326.775,348.693,326.775,348.702z"/>
	<path style="fill:#F2F2F2;" d="M503.487,376.811c-11.645-0.004-23.291,0.126-34.933-0.051c-7.293-0.111-12.292-4.076-14.042-10.503
		c-1.588-5.83,0.549-12.082,5.844-15.125c2.47-1.419,5.606-2.325,8.449-2.348c23.122-0.184,46.246-0.187,69.368-0.062
		c8.941,0.049,14.794,5.885,14.734,14.103c-0.059,8.127-6.014,13.835-14.985,13.953
		C526.445,376.929,514.966,376.815,503.487,376.811z"/>
	<path style="fill:#F2F2F2;" d="M414.714,348.691c5.818-0.003,11.639-0.145,17.45,0.031c8.465,0.256,14.49,6.199,14.475,14.001
		c-0.015,7.609-5.83,13.778-14.016,13.989c-11.797,0.304-23.613,0.287-35.412,0.013c-8.389-0.195-14.413-6.575-14.223-14.296
		c0.188-7.633,6.079-13.417,14.276-13.696C403.074,348.535,408.896,348.694,414.714,348.691z"/>
	<path style="fill:#F2F2F2;" d="M590.35,376.814c-4.991-0.001-9.985,0.111-14.972-0.025c-8.932-0.243-14.867-5.945-14.86-14.092
		c0.007-8.207,5.872-13.859,14.868-13.986c9.974-0.141,19.952-0.14,29.926,0c8.85,0.124,14.993,5.992,14.992,13.99
		c0,7.967-6.176,13.849-14.985,14.09C600.333,376.926,595.34,376.815,590.35,376.814z"/>
	<path style="fill:#F2F2F2;" d="M247.82,377.02c-3.23-0.22-6.427-0.144-9.506-0.707c-6.722-1.229-11.442-7.22-11.288-13.868
		c0.16-6.919,5.306-12.951,12.274-13.476c5.945-0.449,11.983-0.452,17.923,0.039c6.84,0.565,11.67,6.335,11.887,13.204
		c0.218,6.911-4.16,12.775-10.94,14.046C254.77,376.896,251.233,376.793,247.82,377.02z"/>
</g>
</svg>
