<?xml version="1.0" encoding="utf-8"?>
<!-- Generator: Adobe Illustrator 19.1.0, SVG Export Plug-In . SVG Version: 6.00 Build 0)  -->
<!DOCTYPE svg PUBLIC "-//W3C//DTD SVG 1.1//EN" "http://www.w3.org/Graphics/SVG/1.1/DTD/svg11.dtd">
<svg version="1.1" id="Layer_1" xmlns="http://www.w3.org/2000/svg" xmlns:xlink="http://www.w3.org/1999/xlink" x="0px" y="0px"
	 viewBox="0 0 597.002 382.598" style="enable-background:new 0 0 597.002 382.598;" xml:space="preserve">
<g>
	<path style="fill:#CF000F;" d="M310.06,91.267c11.268,34.956,35.169,54.754,71.152,57.284
		c36.356,2.556,62.493-14.525,78.655-47.727c7.543,1.833,14.313,5.513,20.53,10.29c8.328,6.399,14.643,14.543,19.668,23.663
		c31.081,56.404,62.128,112.826,93.106,169.287c7.929,14.45,3.155,31.321-10.704,38.819c-13.95,7.548-30.421,2.46-38.439-12.09
		c-23.611-42.849-47.137-85.746-70.695-128.625c-5.226-9.512-5.226-9.512-17.243-7.722c7.198,62.577,14.397,125.171,21.641,188.152
		c-87.021,0-173.706,0-260.857,0c0.645-1.738,1.161-3.267,1.774-4.757c12.211-29.686,24.477-59.35,36.588-89.077
		c1.3-3.191,3.198-5,6.362-6.299c33.384-13.714,66.709-27.57,100.051-41.387c0.768-0.318,1.539-0.631,2.303-0.958
		c6.556-2.803,9.146-7.908,6.767-13.329c-2.259-5.147-7.692-6.857-13.992-4.248c-42.718,17.689-85.408,35.45-128.154,53.071
		c-5.982,2.466-12.084,5.001-18.379,6.263c-11.426,2.29-21.208-1.417-28.064-10.998c-6.824-9.536-7.349-19.916-1.619-30.126
		c12.462-22.204,25.212-44.247,37.846-66.354c8.918-15.605,17.727-31.275,26.787-46.798
		C259.803,102.483,282.774,89.675,310.06,91.267z M266.337,203.17c7.916-2.752,14.33-5.531,21.024-7.158
		c7.021-1.706,9.919-6.156,11.054-12.931c-5.403-2.365-10.805-4.73-16.494-7.22C276.825,184.79,271.923,193.382,266.337,203.17z"/>
	<path style="fill:#CF000F;" d="M91.192,82.276c-12.893,0-25.786,0-39.642,0c25.23,24.516,49.754,48.348,71.781,69.751
		c-8.815-15.817-19.505-34.997-30.555-54.825c11.223,0,21.637,0,32.935,0c-6.097-13.095-11.886-25.528-17.901-38.448
		c15.638-9.97,31.784-18.036,50.897-15.14c18.71,2.835,34.729,20.367,38.256,40.144c3.058,17.149-1.625,32.69-9.554,47.5
		c-13.263,24.77-32.457,44.635-53.443,62.823c-10.18,8.822-21.03,16.881-31.752,25.054c-1.282,0.977-4.308,1.389-5.456,0.568
		c-30.225-21.638-58.201-45.693-79.187-76.812C6.999,127.218-0.729,110.377,0.055,90.793c0.868-21.675,17.294-42.708,36.817-47.099
		c7.979-1.794,14.771-1.178,21.167,5.572C68.645,60.46,80.394,70.572,91.661,81.141C91.505,81.519,91.348,81.897,91.192,82.276z"/>
	<path style="fill:#CF000F;" d="M339.327,29.942c27.811-30.428,66.345-24.109,86.384-7.487
		c23.334,19.355,29.699,52.342,14.845,78.583c-14.761,26.077-46.247,37.978-74.507,27.948
		c-16.133-5.726-28.003-16.441-35.387-31.916c-7.378-15.462-7.634-31.419-2.037-48.974c-6.254-1.086-12.004-2.72-17.773-2.785
		c-2.442-0.027-5.568,2.783-7.237,5.122c-2.676,3.749-4.525,8.119-6.498,12.333c-4.478,9.561-11.892,15.354-22.07,17.872
		c-12.317,3.047-24.713,3.328-37.164,1.143c-2.352-0.413-4.584-1.515-6.849-2.292c0.286-0.962,0.295-1.458,0.474-1.53
		c9.515-3.824,13.957-11.952,17.365-20.793c3.587-9.307,6.528-18.87,10.312-28.092c6.941-16.916,20.162-26.088,37.921-28.662
		c10.631-1.541,20.497,1.176,27.693,9.432C330.258,16.106,334.613,23.33,339.327,29.942z"/>
</g>
</svg>
