<?xml version="1.0" encoding="utf-8"?>
<!-- Generator: Adobe Illustrator 19.1.0, SVG Export Plug-In . SVG Version: 6.00 Build 0)  -->
<!DOCTYPE svg PUBLIC "-//W3C//DTD SVG 1.1//EN" "http://www.w3.org/Graphics/SVG/1.1/DTD/svg11.dtd">
<svg version="1.1" id="Layer_1" xmlns="http://www.w3.org/2000/svg" xmlns:xlink="http://www.w3.org/1999/xlink" x="0px" y="0px"
	 viewBox="0 0 841.89 842" style="enable-background:new 0 0 841.89 842;" xml:space="preserve">
<circle style="fill:#F22613;" cx="420.945" cy="421" r="421"/>
<g>
	<path style="fill:#F2F2F2;" d="M299.812,495.455c-7.885-7.718-15.184-14.328-21.876-21.504
		c-26.412-28.328-35.664-61.602-24.514-98.737c11.174-37.218,36.994-60.85,74.872-69.588c34.213-7.892,64.651,1.144,90.418,25.009
		c7.682,7.115,14.676,14.974,22.17,22.683c1.854-1.767,3.173-2.972,4.435-4.234c45.716-45.703,91.425-91.413,137.14-137.118
		c9.123-9.121,16.984-9.086,26.176,0.069c4.131,4.115,8.283,8.208,12.436,12.3c5.791,5.705,6.055,13.001,0.651,19.151
		c-0.878,0.999-1.862,1.907-2.804,2.849c-122.869,122.871-245.739,245.741-368.61,368.611c-9.834,9.833-17.152,9.867-26.906,0.132
		c-3.42-3.413-6.868-6.798-10.248-10.25c-7.495-7.655-7.478-16.059,0.158-23.709c27.071-27.12,54.176-54.208,81.293-81.282
		C296.013,498.428,297.657,497.254,299.812,495.455z"/>
	<path style="fill:#F2F2F2;" d="M441.618,636.853c-23.84-23.822-47.382-47.346-70.384-70.33
		c77.393-77.93,154.986-156.06,233.008-234.622c2.235,2.408,4.187,4.35,5.96,6.445c33.165,39.197,32.32,96.729-3.597,133.419
		c-54.089,55.253-109.167,109.536-163.832,164.225C442.426,636.335,441.982,636.584,441.618,636.853z"/>
</g>
</svg>
