<?xml version="1.0" encoding="utf-8"?>
<!-- Generator: Adobe Illustrator 19.1.0, SVG Export Plug-In . SVG Version: 6.00 Build 0)  -->
<!DOCTYPE svg PUBLIC "-//W3C//DTD SVG 1.1//EN" "http://www.w3.org/Graphics/SVG/1.1/DTD/svg11.dtd">
<svg version="1.1" id="Layer_1" xmlns="http://www.w3.org/2000/svg" xmlns:xlink="http://www.w3.org/1999/xlink" x="0px" y="0px"
	 viewBox="0 0 598.202 599.966" style="enable-background:new 0 0 598.202 599.966;" xml:space="preserve">
<g>
	<path style="fill:#CF000F;" d="M568.941,0c-2.303,14.446-5.176,28.83-6.788,43.353c-3.249,29.274-5.684,58.638-8.698,87.939
		c-2.281,22.168,1.896,42.836,11.804,62.839c8.914,17.996,17.296,36.35,24.429,55.11c8.726,22.947,9.181,47.192,7.911,71.466
		c-1.907,36.459-6.564,72.589-12.751,108.541c-0.193,1.124-0.56,2.218-1.022,4.009c-8.744-5.106-17.207-9.906-25.458-15.047
		c-1.024-0.638-1.449-3.157-1.256-4.692c2.683-21.295,6.069-42.516,8.179-63.865c2.389-24.169,4.76-48.441,0.69-72.713
		c-2.666-15.899-8.505-30.728-15.41-45.177c-3.944-8.252-7.872-16.523-12.165-24.596c-13.854-26.054-17.682-53.654-14.134-82.761
		c4.893-40.145,9.194-80.363,13.775-120.547c0.149-1.304,0.591-2.575,0.896-3.861C548.943,0,558.942,0,568.941,0z"/>
	<path style="fill:#CF000F;" d="M506.948,0c-1.474,13.887-3.062,27.764-4.4,41.664c-3.19,33.135-6.582,66.256-9.278,99.433
		c-1.999,24.609,3.727,47.962,14.048,70.211c5.667,12.217,11.735,24.248,17.58,36.384c9.33,19.372,14.024,39.638,13.121,61.313
		c-1.276,30.641-4.598,61.032-9.396,92.068c-9.107-5.331-17.898-10.309-26.429-15.697c-0.991-0.626-0.88-3.551-0.72-5.361
		c2.088-23.701,4.359-47.386,6.412-71.089c1.508-17.419-2.866-33.656-10.446-49.188c-5.689-11.657-11.408-23.3-16.957-35.023
		c-13.904-29.374-19.039-60.29-17.249-92.706c2.352-42.599,7.032-84.914,13.491-127.059c0.249-1.624,0.159-3.299,0.226-4.95
		C486.951,0,496.95,0,506.948,0z"/>
	<path style="fill:#CF000F;" d="M67.617,194.297c11.735,0.433,22.803,3.024,32.944,8.944
		c154.39,90.126,308.775,180.261,463.138,270.434c24.324,14.209,37.849,41.362,33.789,67.321
		c-4.615,29.509-24.535,51.184-53.079,57.422c-17.779,3.885-34.305,0.29-49.892-8.831c-63.068-36.903-126.175-73.738-189.279-110.58
		c-90.848-53.041-181.707-106.064-272.558-159.1C8.737,305.927-3.935,277.548,1.089,249.218
		c4.665-26.302,26.73-48.469,53.178-53.272C58.671,195.146,63.164,194.834,67.617,194.297z M436.805,520.848
		c0.149-28.994,12.712-50.314,37.784-64.275c-0.835-0.61-1.215-0.94-1.641-1.19c-82.847-48.553-165.662-97.163-248.575-145.603
		c-19.936-11.647-45.511-1.942-53.43,19.816c-6.615,18.176,0.802,36.192,19.568,47.193
		c80.545,47.217,161.108,94.403,241.669,141.592C433.564,519.19,435.01,519.893,436.805,520.848z M176.275,281.551
		c-31.055-17.891-61.424-35.485-91.907-52.88c-7.835-4.471-16.496-5.15-25.205-3.179c-15.325,3.468-26.387,15.444-28.896,30.86
		c-2.391,14.687,4.553,29.873,18.044,37.791c28.983,17.011,58.141,33.722,87.245,50.527c0.884,0.51,1.956,0.693,3.085,1.077
		C138.466,316.892,151.065,295.916,176.275,281.551z"/>
</g>
</svg>
