<?xml version="1.0" encoding="utf-8"?>
<!-- Generator: Adobe Illustrator 19.1.0, SVG Export Plug-In . SVG Version: 6.00 Build 0)  -->
<!DOCTYPE svg PUBLIC "-//W3C//DTD SVG 1.1//EN" "http://www.w3.org/Graphics/SVG/1.1/DTD/svg11.dtd">
<svg version="1.1" id="Layer_1" xmlns="http://www.w3.org/2000/svg" xmlns:xlink="http://www.w3.org/1999/xlink" x="0px" y="0px"
	 viewBox="0 0 599.946 599.927" style="enable-background:new 0 0 599.946 599.927;" xml:space="preserve">
<g>
	<path style="fill:#F22613;" d="M387.977,0c9.82,1.639,19.74,2.827,29.444,4.988c76.304,16.992,135.026,82.719,143.619,160.6
		c0.78,7.066,1.039,14.189,1.562,21.601c-175.348,0-349.892,0-525.895,0c1.599-12.938,1.924-25.716,4.882-37.854
		C60.751,70.688,110.007,22.008,188.89,3.582c7.569-1.768,15.4-2.414,23.109-3.582C270.659,0,329.318,0,387.977,0z M299.98,56.25
		c0.009-10.332-8.372-18.693-18.747-18.702c-10.407-0.009-18.698,8.29-18.687,18.703c0.012,10.434,8.292,18.735,18.684,18.731
		C291.542,74.978,299.971,66.557,299.98,56.25z M393.656,74.997c-10.335,0.035-18.686,8.437-18.67,18.783
		c0.016,10.387,8.336,18.652,18.766,18.641c10.382-0.011,18.703-8.369,18.659-18.742C412.366,83.296,404,74.962,393.656,74.997z
		 M224.989,131.223c0-10.333-8.417-18.716-18.753-18.676c-10.444,0.04-18.683,8.301-18.662,18.711
		c0.021,10.433,8.283,18.703,18.691,18.711C216.54,149.977,224.989,141.518,224.989,131.223z"/>
	<path style="fill:#F22613;" d="M562.462,487.856c0,12.917,0,25.396,0,37.875c0,11.495,0.054,22.991-0.014,34.485
		c-0.142,24.021-15.88,39.704-39.826,39.705c-148.437,0.007-296.874,0.007-445.311,0c-23.76-0.001-39.651-15.609-39.768-39.229
		c-0.113-22.823-0.03-45.647-0.019-68.471c0.001-1.317,0.121-2.634,0.205-4.365C212.504,487.856,387.136,487.856,562.462,487.856z"
		/>
	<path style="fill:#F22613;" d="M449.382,375.287c2.161-2.048,3.495-3.254,4.766-4.524c22.505-22.493,44.951-45.046,67.597-67.395
		c1.862-1.838,5.051-3.169,7.672-3.254c10.983-0.357,21.985-0.22,32.979-0.134c20.931,0.162,37.544,16.773,37.55,37.446
		c0.006,20.679-16.568,37.46-37.501,37.481c-37.466,0.038-74.933-0.301-112.399-0.283c-136.921,0.065-273.843,0.221-410.764,0.321
		c-19.974,0.015-34.897-11.95-38.609-30.804c-4.284-21.764,12.419-43.063,34.618-44.125c1.663-0.08,3.331-0.051,4.997-0.051
		c109.782-0.002,219.563,0.016,329.345-0.077c3.786-0.003,6.461,1.045,9.144,3.753c22.16,22.366,44.475,44.578,66.714,66.866
		C446.78,371.799,447.815,373.346,449.382,375.287z"/>
	<path style="fill:#F22613;" d="M560.675,225.314c-36.909,36.911-73.947,73.951-111.318,111.323
		c-0.741-0.693-2.072-1.871-3.327-3.125c-22.385-22.376-44.809-44.714-67.079-67.205c-2.818-2.846-5.651-3.916-9.619-3.912
		c-108.281,0.098-216.562,0.078-324.843,0.078c-2.119,0-4.237,0-6.662,0c0-12.655,0-24.735,0-37.159
		C212.341,225.314,386.752,225.314,560.675,225.314z"/>
	<path style="fill:#F22613;" d="M37.938,412.612c174.854,0,349.258,0,524.092,0c0,12.371,0,24.579,0,37.062
		c-174.601,0-349.135,0-524.092,0C37.938,437.505,37.938,425.316,37.938,412.612z"/>
</g>
</svg>
