<?xml version="1.0" encoding="utf-8"?>
<!-- Generator: Adobe Illustrator 19.1.0, SVG Export Plug-In . SVG Version: 6.00 Build 0)  -->
<!DOCTYPE svg PUBLIC "-//W3C//DTD SVG 1.1//EN" "http://www.w3.org/Graphics/SVG/1.1/DTD/svg11.dtd">
<svg version="1.1" id="Layer_1" xmlns="http://www.w3.org/2000/svg" xmlns:xlink="http://www.w3.org/1999/xlink" x="0px" y="0px"
	 viewBox="0 0 643.037 1067.372" style="enable-background:new 0 0 643.037 1067.372;" xml:space="preserve">
<g>
	<path style="fill:#CF000F;" d="M321.416,0c3.834,86.824,30.975,167.003,69.354,244.004
		c30.36,60.912,66.935,118.139,103.864,175.158c31.403,48.485,63.385,96.616,90.922,147.484
		c20.333,37.56,38.196,76.179,48.467,117.839c18.324,74.322,8.504,145.641-27.617,212.39
		c-50.942,94.135-130.685,149.907-236.29,166.542c-145.906,22.982-287.918-56.018-345.21-189.819
		C4.529,826.007-3.621,776.307,1.48,724.723c3.587-36.274,14.752-70.572,29.168-103.865c21.706-50.13,50.089-96.559,79.264-142.543
		c33.624-52.997,67.872-105.614,100.653-159.128c32.128-52.448,59.672-107.297,79.98-165.552
		c16.413-47.082,27.23-95.31,29.99-145.21C320.69,5.609,321.116,2.808,321.416,0z M356.443,675.976c31.488,0,62.563,0,93.941,0
		c0-23.14,0-45.702,0-68.894c-31.354,0-62.41,0-94.051,0c0-31.165,0-61.707,0-92.316c-23.65,0-46.704,0-70.301,0
		c0,30.867,0,61.413,0,92.575c-31.576,0-62.612,0-93.499,0c0,23.176,0,45.723,0,68.694c31.367,0,62.312,0,93.789,0
		c0,30.985,0,61.544,0,92.133c23.594,0,46.649,0,70.121,0C356.443,737.398,356.443,706.974,356.443,675.976z M192.402,913.703
		c86.197,0,172.11,0,257.969,0c0-23.011,0-45.428,0-67.991c-86.186,0-172.049,0-257.969,0
		C192.402,868.621,192.402,891.201,192.402,913.703z"/>
</g>
</svg>
