<?xml version="1.0" encoding="utf-8"?>
<!-- Generator: Adobe Illustrator 19.1.0, SVG Export Plug-In . SVG Version: 6.00 Build 0)  -->
<!DOCTYPE svg PUBLIC "-//W3C//DTD SVG 1.1//EN" "http://www.w3.org/Graphics/SVG/1.1/DTD/svg11.dtd">
<svg version="1.1" id="Layer_1" xmlns="http://www.w3.org/2000/svg" xmlns:xlink="http://www.w3.org/1999/xlink" x="0px" y="0px"
	 viewBox="0 0 1200.008 1200.15" style="enable-background:new 0 0 1200.008 1200.15;" xml:space="preserve">
<g>
	<path style="fill:#CF000F;" d="M0,623.922c0-15.998,0-31.996,0-47.994c0.27-1.944,0.7-3.881,0.785-5.833
		c1.492-34.191,5.87-68.036,13.533-101.359c32.563-141.611,106.754-256.893,221.573-345.544
		C329.556,50.874,436.094,11.006,554.083,1.794c7.284-0.569,14.563-1.195,21.845-1.794c15.998,0,31.996,0,47.994,0
		c2.129,0.278,4.252,0.714,6.389,0.811c34.185,1.55,67.985,6.092,101.342,13.632c99.939,22.591,188.696,67.46,265.069,135.756
		c114.438,102.336,181.324,229.821,199.28,382.562c7.253,61.698,4.598,123.107-7.498,183.981
		c-21.003,105.7-66.939,199.367-138.707,279.779c-103.508,115.973-232.791,182.956-387.427,200.066
		c-65.087,7.202-129.837,3.484-193.676-11.123c-141.641-32.409-256.879-106.74-345.523-221.562
		C50.859,870.233,11,763.7,1.79,645.715C1.223,638.448,0.598,631.186,0,623.922z M877.334,973.813
		c-217.08-217.08-434.196-434.196-651.268-651.267C102.934,480.901,90.332,742.155,264.256,922.752
		C441.72,1107.024,710.644,1102.338,877.334,973.813z M976.534,873.565c123.563-163.275,130.202-426.096-47.862-603.501
		C749.669,91.723,487.105,101.188,326.339,223.277C543.055,440.024,759.81,656.81,976.534,873.565z"/>
	<path style="fill:#CF000F;" d="M205.309,725.707c0-35.846,0-71.11,0-107.013c2.01,0,3.783,0,5.556,0
		c99.793,0,199.586-0.019,299.379,0.109c2.521,0.003,5.75,0.919,7.456,2.612c33.948,33.67,67.72,67.516,101.521,101.334
		c0.775,0.775,1.474,1.627,2.673,2.958C482.619,725.707,344.129,725.707,205.309,725.707z"/>
	<path style="fill:#CF000F;" d="M932.05,598.925c-11.407,0-22.885,0-35.195,0c0-1.788,0-3.529,0-5.269
		c-0.001-14.496,0.061-28.992-0.017-43.488c-0.163-30.168-16.647-48.522-46.714-51.145c-12.413-1.083-24.951-0.919-37.434-0.993
		c-23.659-0.139-47.325-0.345-70.979,0.024c-46.521,0.725-78.464-32.99-83.624-75.223c-1.372-11.234-0.207-22.777-0.207-34.254
		c-64.463-7.307-107.932-64.395-97.61-126.265c10.488-62.866,60.081-91.922,105.948-90.195c0,11.654,0,23.33,0,35.09
		c-5.9,0.737-11.738,1.004-17.359,2.247c-28.921,6.395-45.203,25.576-51.771,53.389c-10.18,43.11,17.744,82.892,62.138,89.021
		c7.711,1.064,15.601,1.239,23.401,1.154c16.145-0.176,24.67,13.62,17.279,28.029c-10.213,19.911-9.585,39.888,1.34,59.204
		c8.095,14.312,20.967,21.606,37.47,21.684c32.49,0.153,64.982,0.037,97.472,0.068c15.101,0.014,29.93,1.922,44.051,7.504
		c30.933,12.229,48.77,35.106,51.501,68.088C933.41,557.735,932.05,578.127,932.05,598.925z"/>
	<path style="fill:#CF000F;" d="M988.876,598.847c-12.165,0-23.761,0-35.995,0c0-1.905,0.001-3.675,0-5.445
		c-0.015-21.327,0.373-42.663-0.146-63.978c-0.672-27.56-9.089-52.737-26.063-74.617c-22.751-29.326-53.384-42.436-90.05-42.506
		c-17.828-0.034-35.657-0.117-53.483,0.039c-7.837,0.069-14.127-2.492-17.899-9.53c-3.884-7.247-2.283-13.946,2.275-20.562
		c11.85-17.198,19.57-35.973,19.658-57.193c0.155-37.142-22.727-67.512-59.126-77.9c-9.654-2.755-19.817-3.726-30.155-5.59
		c0-10.956,0-22.534,0-34.959c43.455,1.165,80.026,16.058,105.119,52.494c25.228,36.632,25.635,76.166,9.2,117.193
		c8.306,0,15.935,0.012,23.564-0.002c26.268-0.047,51.371,5.029,74.319,18.176c41.925,24.02,66.031,60.895,75.586,107.608
		c2.186,10.685,2.821,21.803,3.061,32.746C989.204,555.957,988.876,577.11,988.876,598.847z"/>
	<path style="fill:#CF000F;" d="M730.409,618.948c48.56,0,97.12,0,146.025,0c0,35.545,0,70.937,0,107.033
		c-7.789,0-15.639-0.739-23.294,0.17c-12.122,1.439-20.502-2.942-28.979-11.754c-29.449-30.613-59.85-60.311-89.919-90.327
		c-1.408-1.406-3.108-2.518-4.672-3.767C729.849,619.851,730.129,619.399,730.409,618.948z"/>
	<path style="fill:#CF000F;" d="M932.509,725.436c-11.808,0-23.38,0-35.304,0c0-36.009,0-71.871,0-108.125
		c11.543,0,23.25,0,35.304,0C932.509,653.211,932.509,689.19,932.509,725.436z"/>
	<path style="fill:#CF000F;" d="M953.355,617.05c11.908,0,23.379,0,35.256,0c0,36.106,0,72.108,0,108.381
		c-11.767,0-23.343,0-35.256,0C953.355,689.315,953.355,653.434,953.355,617.05z"/>
</g>
</svg>
