<?xml version="1.0" encoding="utf-8"?>
<!-- Generator: Adobe Illustrator 19.1.0, SVG Export Plug-In . SVG Version: 6.00 Build 0)  -->
<!DOCTYPE svg PUBLIC "-//W3C//DTD SVG 1.1//EN" "http://www.w3.org/Graphics/SVG/1.1/DTD/svg11.dtd">
<svg version="1.1" id="Layer_1" xmlns="http://www.w3.org/2000/svg" xmlns:xlink="http://www.w3.org/1999/xlink" x="0px" y="0px"
	 viewBox="0 0 518.601 446.279" style="enable-background:new 0 0 518.601 446.279;" xml:space="preserve">
<g>
	<path style="fill:#F22613;" d="M300.31,72.063c-11.223,2.016-22.15,3.978-32.992,5.925c0,49.282,0,98.174,0,147.73
		c2.586,0,4.537-0.003,6.488,0c38.159,0.065,76.318,0.314,114.474,0.052c8.364-0.057,15.48,2.103,21.589,7.404
		c10.182,8.835,20.02,18.066,30.22,26.879c1.902,1.644,4.813,2.962,7.274,2.988c21.826,0.229,43.656,0.133,65.485,0.133
		c1.802,0,3.603,0,5.753,0c0,56.842,0,113.215,0,169.742c-7.279,0-14.242,0-21.839,0c0-42.208,0-84.249,0-126.543
		c-9.063,0-17.496,0-26.702,0c1.251,7.106,2.425,14.049,3.701,20.974c5.246,28.476,10.579,56.935,15.766,85.421
		c3.201,17.581-8.274,31.949-26.31,33.409c-10.398,0.841-18.227-3.613-25.037-10.999c-7.922-8.592-9.762-19.33-11.721-30.207
		c-5.162-28.66-10.302-57.33-16.131-85.857c-0.937-4.587-5.292-8.519-8.287-12.592c-0.42-0.571-2.102-0.215-3.756-0.325
		c2.221,12.169,4.334,23.909,6.512,35.637c4.102,22.087,8.458,44.13,12.261,66.268c1.587,9.242-1.828,17.3-9.51,22.743
		c-8.662,6.137-18.401,8.314-28.244,3.131c-9.586-5.048-15.858-13.301-17.927-23.992c-5.724-29.57-10.758-59.278-16.924-88.752
		c-1.113-5.32-6.23-9.844-9.71-14.58c-0.472-0.643-2.185-0.508-3.324-0.509c-102.312-0.018-204.624-0.014-306.937-0.001
		c-0.655,0-1.31,0.142-2.605,0.292c0,42.049,0,84.096,0,126.397c-7.585,0-14.527,0-21.876,0c0-56.36,0-112.719,0-169.475
		c7.513,0,14.952,0,22.809,0c-14.164-33.086-8.216-60.544,22.682-79.71c20.711-12.847,47.788-9.166,66.066,6.893
		c20.406,17.929,24.603,41.847,12.459,72.251c4.635,0,9.116,0,13.593,0c1.093-22.759,6.978-44.794,5.975-67.872
		c-1.293-29.745,0.478-59.624,0.924-89.445c0.025-1.638,0.003-3.277,0.003-5.475c-10.859,1.917-21.282,3.757-31.706,5.598
		c-1.147,0.203-2.293,0.578-3.44,0.583c-3.897,0.017-5.178,2.023-5.722,5.765c-3.202,21.999-20.924,39.183-42.112,41.174
		c-23.315,2.191-44.07-11.04-51.419-32.778c-8.648-25.582,5.439-53.247,31.335-61.534c25.678-8.217,53.347,6.54,60.9,32.493
		c0.509,1.748,0.92,3.525,1.543,5.929c13.523-2.406,27.033-4.81,41.645-7.41c0-3.724-0.518-7.564,0.146-11.188
		c0.662-3.608,1.708-7.684,3.99-10.357c6.837-8.008,16.103-11.086,26.459-9.937c7.807,0.867,15.018,9.508,15.33,17.467
		c0.064,1.641,0.009,3.287,0.009,5.701c9.038-1.579,17.64-3.009,26.192-4.698c0.763-0.151,1.596-1.93,1.72-3.029
		c1.487-13.115,9.482-20.743,24.018-22.742c11.663-1.604,18.331,3.053,23.83,16.959c10.497-1.873,21.088-3.763,32.026-5.715
		c0.352-20.426,7.934-37.34,24.139-49.866c12.553-9.703,26.937-13.364,42.686-12.208c29.155,2.14,52.879,26.976,54.698,57.366
		c1.783,29.785-19.42,56.98-48.544,62.665C340.739,126.385,308.433,107.538,300.31,72.063z M192.284,91.377
		c0,45.017,0,89.542,0,134.153c8.825,0,16.888,0,25.475,0c0-46.272,0-92.167,0-138.613C209.52,88.359,200.911,89.867,192.284,91.377
		z M54.237,101.207c-1.602,1.85-3.349,2.983-3.342,4.104c0.007,1.145,1.661,3.086,2.734,3.187c1.042,0.098,2.995-1.569,3.194-2.699
		C57.018,104.697,55.497,103.294,54.237,101.207z M360.086,56.257c-1.353,2.033-2.906,3.342-2.775,4.451
		c0.136,1.152,1.902,2.112,2.955,3.155c1.039-1.083,2.819-2.112,2.904-3.265C363.253,59.484,361.587,58.24,360.086,56.257z"/>
</g>
</svg>
