<?xml version="1.0" encoding="utf-8"?>
<!-- Generator: Adobe Illustrator 19.1.0, SVG Export Plug-In . SVG Version: 6.00 Build 0)  -->
<!DOCTYPE svg PUBLIC "-//W3C//DTD SVG 1.1//EN" "http://www.w3.org/Graphics/SVG/1.1/DTD/svg11.dtd">
<svg version="1.1" id="Layer_1" xmlns="http://www.w3.org/2000/svg" xmlns:xlink="http://www.w3.org/1999/xlink" x="0px" y="0px"
	 viewBox="0 0 538.326 538.224" style="enable-background:new 0 0 538.326 538.224;" xml:space="preserve">
<g>
	<path style="fill:#CF000F;" d="M357.582,538.224c-59.084,0-117.637,0-176.711,0c0-2.45,0-4.585,0-6.72
		c0-55.981-0.08-111.963,0.132-167.943c0.02-5.245-1.536-6.259-6.437-6.244c-55.981,0.17-111.962,0.108-167.943,0.108
		c-2.118,0-4.235,0-6.623,0c0-59.047,0-117.466,0-176.598c60.175,0,120.185,0,180.738,0c0-60.605,0-120.501,0-180.827
		c59.068,0,117.59,0,176.632,0c0,59.967,0,119.869,0,180.475c60.537,0,120.561,0,180.955,0c0,59.248,0,117.789,0,176.928
		c-2.292,0-4.414,0-6.537,0c-56.148,0-112.296,0.051-168.443-0.095c-4.513-0.012-5.884,1.098-5.87,5.774
		c0.165,56.147,0.106,112.295,0.106,168.443C357.582,533.659,357.582,535.793,357.582,538.224z M269.549,154.626
		c-1.524,2.71-2.405,4.079-3.099,5.537c-11.934,25.068-24.611,49.819-35.527,75.323c-9.461,22.105-18.611,44.608-24.903,67.75
		c-12.286,45.19,28.321,87.187,74.546,79.167c35.337-6.131,63.506-42.968,51.224-83.478c-8.714-28.743-20.492-56.207-33.039-83.376
		C289.491,195.498,279.677,175.703,269.549,154.626z"/>
	<path style="fill:#CF000F;" d="M220.934,293.223c-0.217,39.891,18.475,65,55.423,77.05c-17.567,2.341-32.819-2.609-45.43-15.178
		C215.029,339.252,211.289,316.659,220.934,293.223z"/>
</g>
</svg>
