<?xml version="1.0" encoding="utf-8"?>
<!-- Generator: Adobe Illustrator 19.1.0, SVG Export Plug-In . SVG Version: 6.00 Build 0)  -->
<!DOCTYPE svg PUBLIC "-//W3C//DTD SVG 1.1//EN" "http://www.w3.org/Graphics/SVG/1.1/DTD/svg11.dtd">
<svg version="1.1" id="Layer_1" xmlns="http://www.w3.org/2000/svg" xmlns:xlink="http://www.w3.org/1999/xlink" x="0px" y="0px"
	 viewBox="0 0 539.159 449.63" style="enable-background:new 0 0 539.159 449.63;" xml:space="preserve">
<g>
	<path style="fill:#CF000F;" d="M282.423,449.63c-8.508,0-16.628,0-25.136,0c0-117.563,0-235.026,0-352.804
		c8.415,0,16.638,0,25.136,0C282.423,214.417,282.423,331.765,282.423,449.63z"/>
	<path style="fill:#CF000F;" d="M224.994,64.193c8.548,0,16.663,0,25.121,0c0,107.056,0,213.89,0,321.113
		c-8.241,0-16.476,0-25.121,0C224.994,278.466,224.994,171.506,224.994,64.193z"/>
	<path style="fill:#CF000F;" d="M289.141,64.173c8.544,0,16.663,0,25.108,0c0,107.052,0,213.903,0,321.137
		c-8.166,0-16.41,0-25.108,0C289.141,278.496,289.141,171.54,289.141,64.173z"/>
	<path style="fill:#CF000F;" d="M160.807,0.025c8.497,0,16.62,0,25.447,0c0,1.921,0,3.695,0,5.469
		c0,103.427-0.03,206.854,0.1,310.281c0.006,4.606-1.224,6.083-5.832,5.809c-6.44-0.384-12.919-0.097-19.715-0.097
		C160.807,214.176,160.807,107.347,160.807,0.025z"/>
	<path style="fill:#CF000F;" d="M378.327,321.472c-7.777,0-15.242,0.094-22.698-0.119c-0.931-0.027-2.188-1.527-2.62-2.613
		c-0.459-1.152-0.119-2.624-0.119-3.957c-0.001-102.765-0.001-205.53-0.001-308.296c0-1.971,0-3.942,0-6.265
		c8.626,0,16.851,0,25.438,0C378.327,107.01,378.327,213.844,378.327,321.472z"/>
	<path style="fill:#CF000F;" d="M217.531,353.563c-8.544,0-16.642,0-24.96,0c0-107.109,0-213.961,0-321.098
		c8.407,0,16.493,0,24.96,0C217.531,139.518,217.531,246.367,217.531,353.563z"/>
	<path style="fill:#CF000F;" d="M321.623,32.48c8.514,0,16.6,0,24.978,0c0,107.039,0,213.778,0,320.928c-8.158,0-16.37,0-24.978,0
		C321.623,246.641,321.623,139.798,321.623,32.48z"/>
	<path style="fill:#CF000F;" d="M153.346,288.749c-8.4,0-16.516,0-25.031,0c0-96.138,0-192.143,0-288.516c8.21,0,16.435,0,25.031,0
		C153.346,96.173,153.346,192.185,153.346,288.749z"/>
	<path style="fill:#CF000F;" d="M385.782,0.033c8.476,0,16.6,0,25.084,0c0,96.146,0,192.163,0,288.547c-8.295,0-16.516,0-25.084,0
		C385.782,192.565,385.782,96.55,385.782,0.033z"/>
	<path style="fill:#CF000F;" d="M121.523,256.867c-8.28,0-16.365,0-24.858,0c0-85.558,0-171.033,0-256.755
		c8.261,0,16.359,0,24.858,0C121.523,85.645,121.523,171.111,121.523,256.867z"/>
	<path style="fill:#CF000F;" d="M442.492,256.875c-8.306,0-16.391,0-24.875,0c0-85.467,0-170.827,0-256.598
		c8.058,0,16.269,0,24.875,0C442.492,85.542,442.492,170.891,442.492,256.875z"/>
	<path style="fill:#CF000F;" d="M64.106,0c8.511,0,16.645,0,25.14,0c0,74.82,0,149.519,0,224.528c-8.243,0-16.497,0-25.14,0
		C64.106,149.888,64.106,75.195,64.106,0z"/>
	<path style="fill:#CF000F;" d="M449.809,224.409c0-74.911,0-149.489,0-224.304c8.497,0,16.745,0,25.309,0
		c0,74.743,0,149.309,0,224.304C466.858,224.409,458.495,224.409,449.809,224.409z"/>
	<path style="fill:#CF000F;" d="M57.556,32.179c0,53.877,0,106.973,0,160.424c-8.398,0-16.636,0-25.627,0c0-1.75,0-3.515,0-5.279
		c0-49.804,0.06-99.608-0.1-149.412c-0.015-4.57,1.163-6.116,5.812-5.832C44.081,32.474,50.565,32.179,57.556,32.179z"/>
	<path style="fill:#CF000F;" d="M507.49,32.179c0,53.9,0,106.994,0,160.433c-8.41,0-16.651,0-25.618,0c0-1.775,0-3.545,0-5.315
		c0-49.804,0.062-99.608-0.103-149.412c-0.015-4.619,1.243-6.075,5.841-5.803C494.051,32.464,500.531,32.179,507.49,32.179z"/>
	<path style="fill:#CF000F;" d="M0,96.794c8.347,0,16.584,0,25.155,0c0,10.581,0,20.977,0,31.716c-8.284,0-16.525,0-25.155,0
		C0,118.127,0,107.604,0,96.794z"/>
	<path style="fill:#CF000F;" d="M513.997,96.711c8.511,0,16.642,0,25.162,0c0,10.59,0,21.113,0,31.89c-8.336,0-16.582,0-25.162,0
		C513.997,118.093,513.997,107.703,513.997,96.711z"/>
</g>
</svg>
