<?xml version="1.0" encoding="utf-8"?>
<!-- Generator: Adobe Illustrator 19.1.0, SVG Export Plug-In . SVG Version: 6.00 Build 0)  -->
<!DOCTYPE svg PUBLIC "-//W3C//DTD SVG 1.1//EN" "http://www.w3.org/Graphics/SVG/1.1/DTD/svg11.dtd">
<svg version="1.1" id="Layer_1" xmlns="http://www.w3.org/2000/svg" xmlns:xlink="http://www.w3.org/1999/xlink" x="0px" y="0px"
	 viewBox="0 0 564.082 568.055" style="enable-background:new 0 0 564.082 568.055;" xml:space="preserve">
<g>
	<path style="fill:#F22613;" d="M398.869,146.068c2.437,15.452,5.534,30.627,7.112,45.958c4.264,41.428-1.337,81.785-15.64,120.814
		c-10.638,29.03-21.301,58.093-33.37,86.54c-7.104,16.745-16.975,32.315-25.791,48.767c-0.227-0.123,0.67,0.482,1.652,0.877
		c12.333,4.965,23.112,12.366,33.436,20.644c22.83,18.303,32.661,43.033,35.809,71.159c0.518,4.63,0.871,9.295,0.967,13.951
		c0.17,8.177-4.096,12.529-12.224,12.224c-36.265-1.359-67.548-12.814-88.821-44.293c-0.369-0.545-0.855-1.014-1.31-1.496
		c-0.093-0.098-0.291-0.097-0.871-0.271c-1.196,1.516-2.574,3.117-3.793,4.831c-17.734,24.942-42.902,36.492-72.416,40.141
		c-4.786,0.592-9.619,0.963-14.44,1.083c-7.504,0.187-12.178-4.152-11.914-11.554c1.724-48.273,17.538-81.859,69.171-105.955
		c1.195-0.558,2.414-1.063,3.988-1.753c-0.788-1.236-1.411-2.315-2.129-3.326c-14.967-21.046-25.704-44.311-35.231-68.14
		c-13.465-33.682-26.584-67.546-34.227-103.126c-9.111-42.412-7.523-84.663,3.564-126.726
		C267.494,170.541,332.363,170.617,398.869,146.068z"/>
	<path style="fill:#F22613;" d="M46.25,378.444c0-51.826-0.039-103.652,0.083-155.478c0.009-3.638-1.113-5.422-4.328-7.267
		C15.32,200.384,0.732,177.251,0.312,146.431c-0.581-42.653-0.179-85.319-0.138-127.98C0.183,7.805,7.756-0.003,17.748,0.06
		c10.011,0.063,17.398,7.824,17.414,18.562c0.055,37.828,0.035,75.656,0.048,113.484c0.003,7.417,1.005,8.443,8.263,8.48
		c3.833,0.019,7.667-0.072,11.498,0.018c4.61,0.108,6.662-1.997,6.616-6.648c-0.111-11.164-0.032-22.33-0.032-33.495
		c0.001-26.496-0.16-52.995,0.16-79.487c0.054-4.434,1.326-9.35,3.557-13.151c4.039-6.882,12.599-9.291,20.19-6.894
		c8.04,2.539,12.832,9.105,12.846,18.159c0.059,37.161,0.027,74.323,0.03,111.484c0.001,9.431,0.558,10.002,9.77,10.023
		c2.833,0.007,5.666,0.024,8.499,0.011c6.995-0.031,8.215-1.196,8.222-8.073c0.023-21.497,0.005-42.994,0.02-64.491
		c0.012-17.164-0.114-34.33,0.145-51.49c0.124-8.25,6.284-14.828,14.329-16.285c7.853-1.422,16.041,2.955,18.987,10.528
		c1.001,2.572,1.54,5.494,1.546,8.258c0.094,41.994,0.44,83.993-0.059,125.981c-0.378,31.759-14.887,55.728-42.824,71.13
		c-3.522,1.941-3.277,4.482-3.277,7.437c-0.005,101.986,0,203.972-0.064,305.958c-0.003,4.305-0.09,8.745-1.094,12.89
		c-4.006,16.526-19.795,27.369-36.368,25.371c-17.138-2.066-29.84-16.274-29.883-33.896c-0.102-41.994-0.035-83.988-0.036-125.982
		C46.249,398.108,46.25,388.276,46.25,378.444z"/>
	<path style="fill:#F22613;" d="M508.948,268.849c-4.247-0.704-8.238-1.061-12.065-2.051c-23.608-6.106-38.633-29.567-35.345-53.804
		c5.125-37.776,9.744-75.621,14.607-113.433c2.591-20.144,5.043-40.31,7.926-60.413c2.833-19.758,21.204-34.624,40.967-33.646
		c21.234,1.051,38.052,17.528,38.991,38.213c0.053,1.165,0.05,2.332,0.05,3.498c0.002,161.461,0.009,322.922-0.008,484.383
		c-0.002,18.255-10.964,32.091-28.079,35.652c-21.875,4.552-42.745-13.195-41.502-35.564c3.374-60.71,6.899-121.411,10.353-182.117
		c1.382-24.282,2.749-48.566,4.086-72.851C509.066,274.237,508.948,271.742,508.948,268.849z"/>
	<path style="fill:#F22613;" d="M214.703,110.572c7.941-18.626,17.117-35.169,28.133-50.673
		c10.312-14.513,20.703-28.971,31.137-43.397c13.828-19.12,38.895-19.255,52.685-0.149c12.755,17.671,25.74,35.211,37.664,53.436
		c8.22,12.564,14.803,26.198,22.694,40.39C328.695,132.015,272.112,131.948,214.703,110.572z"/>
</g>
</svg>
