<?xml version="1.0" encoding="utf-8"?>
<!-- Generator: Adobe Illustrator 19.1.0, SVG Export Plug-In . SVG Version: 6.00 Build 0)  -->
<!DOCTYPE svg PUBLIC "-//W3C//DTD SVG 1.1//EN" "http://www.w3.org/Graphics/SVG/1.1/DTD/svg11.dtd">
<svg version="1.1" id="Layer_1" xmlns="http://www.w3.org/2000/svg" xmlns:xlink="http://www.w3.org/1999/xlink" x="0px" y="0px"
	 viewBox="0 0 400.044 588.726" style="enable-background:new 0 0 400.044 588.726;" xml:space="preserve">
<g>
	<path style="fill:#F22613;" d="M46.701,506.102c1.802-15.337,3.572-30.362,5.331-45.388c3.524-30.097,6.643-60.25,10.754-90.267
		c1.721-12.568-0.944-22.257-11.63-29.48c-4.131-2.792-7.839-6.203-11.891-9.12C10.342,311.029-0.625,282.5,3.603,247.764
		c6.628-54.454,19.529-107.695,31.944-161.008c6.489-27.864,13.628-55.576,20.484-83.354c0.237-0.959,0.589-1.89,1.067-3.401
		c39.451,4.563,78.893,9.124,118.553,13.711c0.152,1.39,0.358,2.493,0.381,3.6c1.378,68.48,2.043,136.967-1.246,205.404
		c-0.949,19.749-2.067,39.774-6.168,59.02c-5.853,27.466-22.93,47.144-49.158,58.34c-6.727,2.871-13.294,6.119-19.913,9.239
		c-8.112,3.823-11.903,10.157-12.904,19.192c-5.024,45.343-10.382,90.649-15.867,135.939c-0.491,4.05,0.945,5.045,4.236,6.142
		c11.198,3.733,22.34,7.656,33.38,11.832c2.532,0.958,6.782,1.225,5.381,6.141c-1.785,6.263-4.629,8.822-9.861,8.228
		c-18.033-2.05-36.055-4.188-54.084-6.275c-13.562-1.57-27.123-3.159-40.694-4.652c-6.337-0.697-10.203-5.253-8.872-11.519
		c0.297-1.397,2.881-3.043,4.594-3.285c11.203-1.581,22.455-2.819,33.694-4.144C41.175,506.603,43.811,506.387,46.701,506.102z
		 M153.015,113.832c1.256-26.897,2.489-53.295,3.742-80.129c-27.818-3.369-55.18-6.682-82.86-10.035
		c-7.145,30.3-14.16,60.046-21.263,90.163C86.272,113.832,119.36,113.832,153.015,113.832z M108.543,315.379
		c9.72,0.041,17.49-7.63,17.573-17.349c0.085-9.892-7.915-17.969-17.666-17.836c-9.592,0.131-17.407,8.077-17.387,17.679
		C91.083,307.529,98.881,315.338,108.543,315.379z M81.052,197.271c9.705-0.022,17.464-7.745,17.489-17.407
		c0.024-9.584-7.781-17.54-17.347-17.679c-9.673-0.141-17.892,8.083-17.776,17.785C63.533,189.6,71.374,197.293,81.052,197.271z
		 M127.296,175.278c6.586,0.045,11.758-4.974,11.855-11.503c0.101-6.801-5.079-12.006-11.891-11.95
		c-6.551,0.054-11.648,5.193-11.641,11.735C115.626,170.081,120.761,175.234,127.296,175.278z"/>
	<path style="fill:#F22613;" d="M194.427,70.949c38.709-6.915,77.661-13.873,117.119-20.922c4.03,12.624,8.094,25.071,11.978,37.573
		c18.408,59.245,36.837,118.495,50.773,178.996c3.389,14.711,6.802,29.719,7.403,44.702c1.111,27.706-9.715,50.848-31.58,68.512
		c-5.562,4.493-10.739,9.475-15.964,14.37c-5.763,5.398-7.855,11.805-6.398,19.862c8.289,45.848,16.3,91.746,24.428,137.623
		c0.17,0.961,0.608,1.875,1.364,4.134c9.808,0,19.946-0.079,30.083,0.043c3.484,0.042,6.98,0.455,10.435,0.947
		c2.572,0.367,5.942-0.375,5.975,4.138c0.045,6.055-1.762,9.742-6.032,10.55c-9.81,1.856-19.65,3.547-29.479,5.303
		c-21.949,3.922-43.901,7.83-65.846,11.773c-5.949,1.069-11.585-2.997-11.534-8.914c0.012-1.403,1.954-3.392,3.475-4.081
		c11.053-5.009,22.131-9.99,33.408-14.46c4.168-1.653,5.316-3.245,4.463-7.914c-8.014-43.868-15.859-87.769-23.347-131.73
		c-1.736-10.192-6.263-17.246-16.1-20.791c-5.629-2.029-11.051-4.644-16.71-6.571c-32.89-11.202-52.479-34.367-57.946-68.122
		c-5.024-31.02-8.621-62.348-11.145-93.677c-3.731-46.311-6.011-92.741-8.763-139.129C194.064,86.047,194.427,78.882,194.427,70.949
		z M274.412,155.914c-3.336,12.149-1.701,19.083,5.458,24.058c6.03,4.191,14.106,4.165,20.15-0.066
		c7.006-4.905,8.59-11.763,5.354-24.12c5.188,0,10.269,0,15.88,0c-8.447-27.148-16.721-53.739-25.088-80.629
		c-26.586,5.062-52.66,10.026-79.123,15.064c1.7,22.006,3.373,43.656,5.075,65.693C239.821,155.914,257.062,155.914,274.412,155.914
		z M270.988,362.206c9.693,0.032,17.528-7.636,17.679-17.304c0.151-9.668-8.102-17.94-17.784-17.825
		c-9.569,0.114-17.41,8.092-17.378,17.682C253.537,354.463,261.264,362.174,270.988,362.206z M271.17,228.244
		c9.659-0.042,17.525-7.862,17.541-17.437c0.015-9.492-7.943-17.549-17.452-17.669c-9.72-0.123-17.797,8.019-17.689,17.832
		C253.677,220.704,261.403,228.286,271.17,228.244z M304.057,295.978c-0.077-6.454-5.396-11.729-11.814-11.716
		c-6.388,0.013-11.754,5.372-11.806,11.79c-0.054,6.622,5.477,12.043,12.136,11.894C299.056,307.802,304.134,302.51,304.057,295.978
		z M240.966,309.727c-0.106,6.483,4.997,11.887,11.44,12.113c6.549,0.23,12.255-5.31,12.248-11.892
		c-0.006-6.389-5.379-11.806-11.776-11.871C246.474,298.012,241.071,303.295,240.966,309.727z"/>
</g>
</svg>
