<?xml version="1.0" encoding="utf-8"?>
<!-- Generator: Adobe Illustrator 19.1.0, SVG Export Plug-In . SVG Version: 6.00 Build 0)  -->
<!DOCTYPE svg PUBLIC "-//W3C//DTD SVG 1.1//EN" "http://www.w3.org/Graphics/SVG/1.1/DTD/svg11.dtd">
<svg version="1.1" id="Layer_1" xmlns="http://www.w3.org/2000/svg" xmlns:xlink="http://www.w3.org/1999/xlink" x="0px" y="0px"
	 viewBox="0 0 592.602 592.59" style="enable-background:new 0 0 592.602 592.59;" xml:space="preserve">
<g>
	<path style="fill:#CF000F;" d="M0.01,295.95c0-80.486-0.032-160.973,0.018-241.459C0.045,27.943,15.833,7.361,40.687,1.538
		c4.492-1.052,9.232-1.47,13.857-1.472c161.139-0.073,322.279-0.084,483.418-0.04c31.339,0.008,54.567,23.603,54.604,55.393
		c0.067,58.323,0.02,116.647,0.02,174.97c0,102.482,0.018,204.965-0.016,307.447c-0.008,24.193-12.845,43.714-34.271,51.201
		c-6.168,2.155-12.998,3.389-19.526,3.396c-161.639,0.183-323.278,0.186-484.917,0.106c-31.269-0.016-53.813-22.843-53.83-54.131
		C-0.019,457.589,0.01,376.77,0.01,295.95z M546.951,370.69c-1.074-9.649-2.334-27.952-5.3-45.973
		c-4.522-27.473-13.135-53.733-29.249-76.801c-5.469-7.829-12.018-15.275-19.345-21.366c-21.754-18.083-47.553-17.435-69.163,0.898
		c-15.371,13.039-25.285,29.893-33.007,48.169c-11.332,26.821-16.87,54.992-18.535,83.922c-2.44,42.388,2.141,83.823,18.616,123.357
		c7.826,18.781,18.075,36.062,34.231,49.051c21.96,17.656,47.28,17.308,68.892-0.713c11.986-9.994,20.732-22.504,27.689-36.288
		C540.128,458.599,546.133,419.546,546.951,370.69z M45.011,374.209c0.021,40.145,5.722,73.674,16.964,102.907
		c7.171,18.646,16.554,36.027,31.14,50.06c24.851,23.909,54.738,23.692,79.355-0.449c12.704-12.458,21.455-27.515,28.285-43.746
		c11.155-26.508,16.715-54.306,18.517-82.914c2.574-40.855-1.6-80.824-16.362-119.277c-7.654-19.939-17.882-38.346-34.26-52.628
		c-22.221-19.378-48.463-19.684-71.196-0.862c-12.015,9.948-20.653,22.551-27.605,36.345
		C51.522,300.012,45.59,339.069,45.011,374.209z M296.409,69.998c-41.14,0-82.281-0.018-123.421,0.01
		c-14.531,0.01-22.956,8.438-22.985,22.962c-0.039,19.987-0.036,39.974-0.001,59.961c0.026,14.57,8.39,22.933,22.962,22.947
		c29.481,0.029,58.963-0.072,88.443,0.102c4.101,0.024,6.38-1.327,8.163-4.935c4.141-8.381,11.025-13.79,20.038-15.946
		c3.714-0.888,5.625-2.724,7.21-5.939c9.118-18.501,18.347-36.949,27.707-55.329c0.806-1.583,2.84-2.542,4.303-3.79
		c0.091,1.798,0.682,3.745,0.197,5.371c-5.7,19.118-11.484,38.213-17.464,57.246c-0.92,2.929-0.133,4.213,1.95,6.248
		c3.609,3.526,7.15,7.468,9.433,11.898c2.001,3.883,4.105,5.194,8.341,5.17c29.147-0.167,58.295-0.072,87.443-0.094
		c14.589-0.011,22.995-8.365,23.021-22.887c0.035-19.654,0.017-39.308,0.007-58.962C441.748,78.132,433.657,70.003,417.83,70
		C377.357,69.993,336.883,69.998,296.409,69.998z"/>
</g>
</svg>
