<?xml version="1.0" encoding="utf-8"?>
<!-- Generator: Adobe Illustrator 19.1.0, SVG Export Plug-In . SVG Version: 6.00 Build 0)  -->
<!DOCTYPE svg PUBLIC "-//W3C//DTD SVG 1.1//EN" "http://www.w3.org/Graphics/SVG/1.1/DTD/svg11.dtd">
<svg version="1.1" id="Layer_1" xmlns="http://www.w3.org/2000/svg" xmlns:xlink="http://www.w3.org/1999/xlink" x="0px" y="0px"
	 viewBox="0 0 577.908 577.773" style="enable-background:new 0 0 577.908 577.773;" xml:space="preserve">
<g>
	<path style="fill:#F22613;" d="M81.843,577.773c-32.688-0.059-62.737-19.508-74.953-49.831
		c-13.131-32.592-7.343-62.282,16.083-88.494c0.998-1.117,2.088-2.152,3.148-3.212C163.134,299.221,300.16,162.22,437.147,25.179
		c17.854-17.861,39.22-26.226,64.469-25.074c36.673,1.673,69.888,31.541,75.229,67.915c4.131,28.136-3.769,52.389-23.865,72.493
		C415.521,278.025,278.021,415.496,140.538,552.985C124.324,569.2,104.72,577.356,81.843,577.773z M98.046,453.851
		c-0.12,13.869,9.868,24.869,22.978,25.305c13.783,0.459,24.302-9.458,25.043-23.608c0.722-13.783,9.353-22.139,23.433-22.685
		c41.028-1.592,71.509-32.36,72.37-73.052c0.279-13.188,9.562-22.254,22.897-22.693c4.804-0.158,9.682-0.526,14.364-1.544
		c34.285-7.454,56.904-35.237,58.449-71.512c0.567-13.319,9.133-21.95,22.42-22.641c3.655-0.19,7.359-0.178,10.946-0.799
		c36.374-6.298,60.61-34.182,62.084-71.273c0.563-14.164,8.549-22.408,22.676-23.408c14.238-1.008,24.563-11.887,23.803-25.082
		c-0.788-13.692-11.447-23.171-25.774-22.92c-37.262,0.652-67.381,30.063-68.383,68.289c-0.423,16.144-12.985,26.984-27.306,27.481
		c-30.035,1.044-51.733,16.135-63.296,44.013c-3.351,8.079-4.33,17.373-5.133,26.225c-1.358,14.959-11.273,24.878-26.279,25.27
		c-4.635,0.121-9.342,0.537-13.861,1.526c-32.55,7.125-54.977,34.605-55.623,67.894c-0.209,10.778-4.702,19.214-14.689,23.524
		c-4.569,1.972-9.971,2.465-15.044,2.742C128.018,386.878,98.359,417.709,98.046,453.851z"/>
	<path style="fill:#F22613;" d="M8.773,308.598c0.44-22.481,8.855-41.877,25.094-58.088
		C97.18,187.305,160.402,124.008,223.661,60.749c9.895-9.895,19.658-19.929,29.738-29.633c31.12-29.958,80.346-30.128,111.771-0.528
		c7.633,7.19,7.824,14.571,0.382,22.014c-104.243,104.265-208.5,208.518-312.77,312.756c-7.387,7.385-14.828,7.18-22.004-0.552
		C16.193,349.092,9.023,330.436,8.773,308.598z"/>
	<path style="fill:#F22613;" d="M569.385,268.548c-0.361,22.932-8.794,42.375-25.02,58.569
		c-41.036,40.957-82.008,81.98-123.006,122.975c-31.691,31.689-63.261,63.5-95.11,95.03c-31.532,31.215-80.886,32.076-112.864,2.294
		c-8.081-7.526-8.25-14.917-0.447-22.719c104.022-104.025,208.048-208.045,312.08-312.061c7.897-7.895,15.159-7.745,22.71,0.497
		C562.085,228.805,569.155,247.344,569.385,268.548z"/>
</g>
</svg>
