<?xml version="1.0" encoding="utf-8"?>
<!-- Generator: Adobe Illustrator 19.1.0, SVG Export Plug-In . SVG Version: 6.00 Build 0)  -->
<!DOCTYPE svg PUBLIC "-//W3C//DTD SVG 1.1//EN" "http://www.w3.org/Graphics/SVG/1.1/DTD/svg11.dtd">
<svg version="1.1" id="Layer_1" xmlns="http://www.w3.org/2000/svg" xmlns:xlink="http://www.w3.org/1999/xlink" x="0px" y="0px"
	 viewBox="0 0 301.454 539.47" style="enable-background:new 0 0 301.454 539.47;" xml:space="preserve">
<g>
	<path style="fill:#F22613;" d="M150.498,517.84c-12.126,9.627-25.536,16.25-40.618,19.549
		C51.731,550.11-3.526,502.76,0.305,443.461c1.584-24.521,11.272-45.282,28.556-62.592c25.313-25.351,50.667-50.66,75.985-76.005
		c21.163-21.187,21.174-49.217-0.004-70.44c-25.423-25.476-50.995-50.804-76.31-76.387C0.211,129.417-7.753,88.391,7.914,53.465
		c23.429-52.23,89.83-69.918,136.328-36.307c2.023,1.462,3.978,3.018,6.284,4.772c1.913-1.375,3.896-2.818,5.897-4.237
		c53.816-38.166,128.779-9.778,142.5,54.495c6.877,32.213-1.921,60.961-24.747,84.62c-25.332,26.257-51.473,51.735-77.262,77.552
		c-22.166,22.19-22.111,48.998,0.16,71.281c25.207,25.22,50.79,50.079,75.541,75.739c28.155,29.189,36.448,63.704,21.54,101.686
		c-21.383,54.476-91.208,73.551-138.33,38.771C154.101,520.565,152.397,519.266,150.498,517.84z M15.269,448.787
		c0.119,2.687,0.226,5.35,0.36,8.012c0.042,0.831,0.109,1.666,0.248,2.485c5.052,29.775,21.483,50.869,49.823,61.012
		c28.329,10.139,54.457,4.331,77.238-15.485c6.559-5.705,8.821-5.843,15.182-0.035c38.354,35.025,99.47,22.646,120.975-24.502
		c13.486-29.567,6.866-63.924-17.336-88.347c-25.214-25.444-50.646-50.672-75.957-76.021c-27.168-27.209-27.165-64.806-0.015-91.972
		c25.205-25.219,50.473-50.375,75.616-75.656c18.796-18.899,27.501-41.76,23.595-68.182c-4.416-29.876-21.598-50.787-50.017-60.715
		c-28.797-10.06-55.115-3.839-77.879,16.635c-4.842,4.355-8.253,4.465-12.963,0.057c-12.299-11.511-26.759-18.202-43.478-20.569
		C59.008,9.609,18.271,42.609,15.566,84.559c-1.636,25.371,7.06,46.644,24.879,64.454c24.982,24.971,49.971,49.934,74.931,74.927
		c27.153,27.188,27.137,64.796-0.027,91.979c-25.203,25.221-50.439,50.408-75.632,75.639
		C23.933,407.366,15.564,426.362,15.269,448.787z"/>
	<path style="fill:#F22613;" d="M143.743,105.989c39.647,0.335,71.47,5.004,102.476,14.914c1.574,0.503,3.187,0.997,4.63,1.776
		c5.636,3.04,6.499,6.381,2.987,11.613c-1.007,1.501-2.281,2.849-3.565,4.134c-29.434,29.463-58.863,58.932-88.382,88.31
		c-2.411,2.4-3.519,4.76-3.51,8.238c0.118,43.814,0.117,87.629,0.002,131.443c-0.009,3.483,0.93,5.703,3.744,7.922
		c26.31,20.746,52.117,42.093,74.467,67.206c5.624,6.319,10.631,13.237,15.439,20.212c2.413,3.501,4.112,7.623,5.485,11.684
		c2.475,7.32,0.526,13.725-5.043,19.087c-23.424,22.557-59.553,22.485-84.551-0.186c-1.725-1.564-3.364-3.27-5.273-4.574
		c-8.456-5.779-19.203-4.493-27.381,3.171c-14.09,13.206-30.55,19.878-50.034,17.98c-14.646-1.426-27.142-7.527-37.489-17.947
		c-5.171-5.207-6.281-11.919-3.228-18.024c4.571-9.142,9.59-18.342,16.005-26.227c20.502-25.2,45.07-46.332,70.72-66.007
		c9.259-7.103,12.756-14.242,12.52-25.918c-0.804-39.8-0.358-79.626-0.223-119.442c0.012-3.661-1.121-6.13-3.675-8.67
		c-29.418-29.246-58.722-58.607-88.054-87.938c-1.06-1.06-2.201-2.058-3.136-3.22c-4.728-5.878-3.347-11.709,4.062-13.591
		c18.348-4.66,36.727-9.436,55.35-12.697C122.126,106.78,136.564,106.592,143.743,105.989z"/>
</g>
</svg>
