<?xml version="1.0" encoding="utf-8"?>
<!-- Generator: Adobe Illustrator 19.1.0, SVG Export Plug-In . SVG Version: 6.00 Build 0)  -->
<!DOCTYPE svg PUBLIC "-//W3C//DTD SVG 1.1//EN" "http://www.w3.org/Graphics/SVG/1.1/DTD/svg11.dtd">
<svg version="1.1" id="Layer_1" xmlns="http://www.w3.org/2000/svg" xmlns:xlink="http://www.w3.org/1999/xlink" x="0px" y="0px"
	 viewBox="0 0 504.221 462.251" style="enable-background:new 0 0 504.221 462.251;" xml:space="preserve">
<g>
	<path style="fill:#F22613;" d="M278.861,327.633c-2.949,14.908-6.131,29.341-8.613,43.895c-4.546,26.649-6.412,53.553-6.723,80.576
		c-0.085,7.352-3,10.104-10.49,10.124c-12.829,0.034-25.659,0.028-38.488,0.003c-7.993-0.016-10.756-2.722-10.84-10.813
		c-0.402-38.599-4.565-76.746-13.435-114.354c-0.738-3.128-1.655-4.651-5.358-4.913c-39.615-2.809-70.053-21.287-91.53-54.549
		c-1.912-2.961-3.667-4.293-7.352-4.344c-38.168-0.531-71.106-25.519-82.262-62.138c-11.05-36.275,2.728-75.702,34.286-97.261
		c3.466-2.368,4.651-4.903,4.974-8.855c3.424-41.881,38.223-73.799,80.254-73.633c4.635,0.018,9.342,0.508,13.874,1.458
		c3.408,0.714,5.408-0.161,7.731-2.639c32.947-35.137,84.832-40.186,123.926-12.077c2.577,1.853,4.61,2.247,7.678,1.183
		c52.498-18.21,108.453,1.942,137.681,49.303c1.153,1.868,3.42,3.742,5.498,4.241c42.458,10.196,68.446,45.937,64.875,89.23
		c-0.165,2.004,1.055,4.419,2.278,6.196c35.068,50.971,15.087,121.158-41.724,145.73c-22.762,9.845-46.136,10.841-69.708,2.993
		c-3.401-1.132-5.519-0.948-8.29,1.573c-22.805,20.747-55.617,24.989-83.776,11.106
		C282.153,329.088,280.944,328.579,278.861,327.633z M357.586,177.536c-0.127-58.307-47.4-105.401-105.732-105.333
		c-57.956,0.068-105.085,47.255-105.235,105.363c-0.15,58.291,47.543,105.802,106.017,105.61
		C310.551,282.986,357.712,235.514,357.586,177.536z"/>
	<path style="fill:#F22613;" d="M251.892,82.647c51.99-0.257,94.996,42.32,95.246,94.296c0.253,52.703-42.088,95.476-94.787,95.753
		c-51.998,0.274-95.005-42.322-95.206-94.295C156.941,125.59,199.173,82.908,251.892,82.647z M252.131,188.933
		c-24.016-0.008-44.371,19.248-45.047,42.518c-0.107,3.665,0.329,7.157,4.667,7.373c4.267,0.212,5.209-3.044,5.417-6.807
		c1.029-18.657,16.107-32.958,34.688-33.069c18.797-0.113,34.21,14.258,35.239,33.046c0.207,3.772,1.093,7.016,5.368,6.826
		c4.333-0.193,4.826-3.651,4.714-7.333C296.467,208.209,276.116,188.941,252.131,188.933z M228.087,153.727
		c-0.003-8.265-6.879-15.25-15.165-15.405c-8.432-0.158-15.655,6.958-15.655,15.421c0,8.256,6.896,15.248,15.176,15.388
		C220.909,169.273,228.09,162.201,228.087,153.727z M306.98,153.779c0.032-8.242-6.843-15.263-15.134-15.456
		c-8.435-0.196-15.64,6.867-15.67,15.362c-0.029,8.294,6.782,15.271,15.075,15.443C299.7,169.303,306.947,162.231,306.98,153.779z"
		/>
</g>
</svg>
