<?xml version="1.0" encoding="utf-8"?>
<!-- Generator: Adobe Illustrator 19.1.0, SVG Export Plug-In . SVG Version: 6.00 Build 0)  -->
<!DOCTYPE svg PUBLIC "-//W3C//DTD SVG 1.1//EN" "http://www.w3.org/Graphics/SVG/1.1/DTD/svg11.dtd">
<svg version="1.1" id="Layer_1" xmlns="http://www.w3.org/2000/svg" xmlns:xlink="http://www.w3.org/1999/xlink" x="0px" y="0px"
	 viewBox="0 0 841.89 842" style="enable-background:new 0 0 841.89 842;" xml:space="preserve">
<circle style="fill:#CF000F;" cx="420.945" cy="421" r="421"/>
<g>
	<path style="fill:#F2F2F2;" d="M685.492,333.804c-0.936,27.871-7.158,53.969-24.428,76.375
		c-5.757,7.469-12.796,13.98-19.483,20.697c-64.541,64.827-129.133,129.603-193.706,194.397
		c-19.307,19.373-35.133,19.314-54.482-0.108c-64.797-65.042-129.456-130.223-194.568-194.949
		c-13.271-13.193-25.616-26.631-32.526-44.262c-33.232-84.791,21.256-170.67,102.773-182.176
		c59.594-8.412,110.465,17.665,139.079,73.819c2.866,5.624,6.646,9.466,12.846,9.381c5.947-0.082,9.496-3.814,12.312-9.31
		c21.199-41.378,53.918-66.573,100.756-73.807c70.917-10.953,135.489,38.442,148.728,106.667
		C684.278,318.174,684.62,326.04,685.492,333.804z M486.692,372.503c-41.989-19.426-83.441-38.603-125.325-57.981
		c-18.972,39.959-37.704,79.413-56.641,119.296c41.94,19.636,83.454,39.072,125.298,58.663
		C448.95,452.413,467.692,412.731,486.692,372.503z M353.325,310.592c-15.826-7.375-31.17-14.577-46.566-21.666
		c-4.165-1.918-8.28-1.45-12.508,0.473c-48.455,22.032-57.93,69.309-52.675,103.71c0.9,5.892,2.442,12.235,9.009,15.246
		c15.113,6.93,30.193,13.932,45.299,20.878c0.228,0.105,0.617-0.141,1.257-0.309C315.733,389.766,334.416,350.417,353.325,310.592z
		 M438.707,496.481c13.443,6.366,26.14,12.537,38.983,18.388c5.468,2.491,11.058,1.65,16.388-1.01
		c28.292-14.121,59.456-48.093,51.291-95.51c-2.341-13.592-6.575-24.636-21.311-28.522c-2.372-0.626-4.533-2.054-6.794-3.106
		c-7.178-3.339-14.358-6.675-21.922-10.191C476.383,416.685,457.675,456.309,438.707,496.481z"/>
	<path style="fill:#F2F2F2;" d="M425.355,368.302c0.107,7.259-5.88,13.442-13.137,13.568c-7.207,0.125-13.448-5.939-13.571-13.186
		c-0.122-7.219,5.922-13.405,13.192-13.5C419.167,355.088,425.247,360.99,425.355,368.302z"/>
	<path style="fill:#F2F2F2;" d="M358.697,399.157c-7.309-0.004-13.307-6.012-13.307-13.329c0-7.277,6.063-13.371,13.311-13.379
		c7.216-0.007,13.376,6.152,13.38,13.379C372.085,393.052,365.951,399.161,358.697,399.157z"/>
	<path style="fill:#F2F2F2;" d="M394.81,417.156c-7.318,0.06-13.365-5.893-13.424-13.214c-0.059-7.288,5.923-13.406,13.193-13.493
		c7.202-0.087,13.415,6.017,13.499,13.259C408.161,410.912,402.059,417.097,394.81,417.156z"/>
	<path style="fill:#F2F2F2;" d="M388.592,349.86c-0.008,7.426-5.871,13.309-13.252,13.296c-7.377-0.014-13.213-5.918-13.195-13.351
		c0.018-7.41,5.935-13.372,13.251-13.349C382.72,336.478,388.599,342.45,388.592,349.86z"/>
	<path style="fill:#F2F2F2;" d="M462.581,385.947c-0.047,7.413-5.968,13.273-13.34,13.204c-7.371-0.069-13.167-6.013-13.107-13.443
		c0.059-7.392,6.044-13.337,13.345-13.257C456.812,372.532,462.628,378.523,462.581,385.947z"/>
	<path style="fill:#F2F2F2;" d="M355.361,421.307c-0.079,7.373-6.028,13.147-13.471,13.078c-7.381-0.069-13.334-6.087-13.229-13.374
		c0.106-7.349,6.088-13.132,13.524-13.074C349.587,407.996,355.441,413.935,355.361,421.307z"/>
	<path style="fill:#F2F2F2;" d="M445.35,421.322c-0.088,7.369-6.045,13.138-13.486,13.062c-7.38-0.076-13.329-6.103-13.214-13.388
		c0.116-7.351,6.101-13.123,13.539-13.058C439.589,408.003,445.438,413.95,445.35,421.322z"/>
	<path style="fill:#F2F2F2;" d="M378.232,452.376c-7.438,0.081-13.435-5.672-13.576-13.022c-0.14-7.287,5.791-13.327,13.178-13.422
		c7.443-0.095,13.414,5.655,13.522,13.023C391.466,446.335,385.637,452.295,378.232,452.376z"/>
	<path style="fill:#F2F2F2;" d="M402.144,456.275c0.091-7.428,6.014-13.208,13.424-13.101c7.389,0.107,13.113,6.047,13.02,13.512
		c-0.092,7.371-6.152,13.315-13.432,13.174C407.8,469.718,402.053,463.717,402.144,456.275z"/>
</g>
</svg>
