<?xml version="1.0" encoding="utf-8"?>
<!-- Generator: Adobe Illustrator 19.1.0, SVG Export Plug-In . SVG Version: 6.00 Build 0)  -->
<!DOCTYPE svg PUBLIC "-//W3C//DTD SVG 1.1//EN" "http://www.w3.org/Graphics/SVG/1.1/DTD/svg11.dtd">
<svg version="1.1" id="Layer_1" xmlns="http://www.w3.org/2000/svg" xmlns:xlink="http://www.w3.org/1999/xlink" x="0px" y="0px"
	 viewBox="0 0 841.89 842" style="enable-background:new 0 0 841.89 842;" xml:space="preserve">
<circle style="fill:#F22613;" cx="420.945" cy="421" r="421"/>
<g>
	<path style="fill:#F2F2F2;" d="M368.23,601.383c35.737,0,70.435,0,105.875,0c-1.393,1.596-2.364,2.816-3.443,3.931
		c-18.882,19.517-35.126,40.88-46.331,65.811c-0.541,1.204-1.761,2.444-2.95,2.869c-0.564,0.202-2.212-1.298-2.674-2.336
		C406.884,645.114,389.371,622.638,368.23,601.383z"/>
	<path style="fill:#F2F2F2;" d="M636.347,195.256c-56.774,0-112.061,0-168.835,0c23.511-17.112,48.873-24.752,76.099-26.816
		C577.205,165.894,607.895,173.982,636.347,195.256z"/>
	<path style="fill:#F2F2F2;" d="M207.08,195.203c32.582-35.297,132.127-35.259,166.449,0
		C318.019,195.203,262.828,195.203,207.08,195.203z"/>
	<path style="fill:#F2F2F2;" d="M252.104,328.856c-10.978,0-21.959-0.129-32.934,0.074c-3.597,0.067-5.014-0.803-4.906-4.686
		c0.262-9.474,0.191-18.962,0.027-28.441c-0.055-3.185,0.853-4.366,4.204-4.348c22.622,0.122,45.244,0.111,67.866,0.008
		c3.135-0.014,4.455,0.762,4.387,4.165c-0.191,9.644-0.225,19.298,0.013,28.94c0.093,3.748-1.487,4.382-4.725,4.342
		C274.727,328.769,263.415,328.855,252.104,328.856z"/>
	<path style="fill:#F2F2F2;" d="M585.463,328.854c-11.311,0-22.624-0.099-33.933,0.062c-3.261,0.046-4.344-0.994-4.284-4.271
		c0.176-9.645,0.178-19.297-0.001-28.941c-0.062-3.306,1.076-4.262,4.306-4.246c22.622,0.112,45.245,0.113,67.867-0.001
		c3.256-0.016,4.345,0.989,4.285,4.268c-0.176,9.645-0.179,19.297,0.001,28.941c0.061,3.305-1.074,4.293-4.308,4.248
		C608.086,328.758,596.774,328.854,585.463,328.854z"/>
	<path style="fill:#F2F2F2;" d="M298.27,291.743c25.241,0,50.139,0,75.389,0c0,12.242,0,24.299,0,36.736
		c-24.957,0-49.983,0-75.389,0C298.27,316.382,298.27,304.334,298.27,291.743z"/>
	<path style="fill:#F2F2F2;" d="M539.917,291.913c0,12.24,0,24.187,0,36.538c-25.149,0-50.163,0-75.548,0
		c0-12.037,0-24.087,0-36.538C489.286,291.913,514.302,291.913,539.917,291.913z"/>
	<path style="fill:#F2F2F2;" d="M456.744,292.001c0,12.29,0,24.087,0,36.37c-25.101,0-50.076,0-75.337,0c0-12.045,0-23.964,0-36.37
		C406.351,292.001,431.324,292.001,456.744,292.001z"/>
	<path style="fill:#F2F2F2;" d="M420.378,283.968c2.33-11.747,4.47-22.942,6.887-34.077c0.235-1.084,2.178-2.562,3.336-2.569
		c23.106-0.151,46.213-0.113,69.688-0.113c0,12.325,0,24.366,0,36.759C474.177,283.968,448.163,283.968,420.378,283.968z"/>
	<path style="fill:#F2F2F2;" d="M424.557,460.931c0-12.24,0-24.154,0-36.408c25.235,0,50.273,0,75.706,0c0,11.967,0,24.004,0,36.408
		C475.181,460.931,450.15,460.931,424.557,460.931z"/>
	<path style="fill:#F2F2F2;" d="M214.67,203.164c25.353,0,50.383,0,75.676,0c0,12.338,0,24.378,0,36.634c-25.349,0-50.36,0-75.676,0
		C214.67,227.476,214.67,215.437,214.67,203.164z"/>
	<path style="fill:#F2F2F2;" d="M424.579,549.12c0-12.329,0-24.232,0-36.485c25.269,0,50.283,0,75.688,0c0,12.036,0,24.074,0,36.485
		C475.141,549.12,450.127,549.12,424.579,549.12z"/>
	<path style="fill:#F2F2F2;" d="M547.567,239.7c0-12.222,0-24.124,0-36.43c25.206,0,50.209,0,75.645,0c0,12.019,0,24.032,0,36.43
		C598.159,239.7,573.148,239.7,547.567,239.7z"/>
	<path style="fill:#F2F2F2;" d="M500.404,335.675c0,12.251,0,24.156,0,36.448c-25.232,0-50.241,0-75.667,0
		c0-12.039,0-24.057,0-36.448C449.82,335.675,474.834,335.675,500.404,335.675z"/>
	<path style="fill:#F2F2F2;" d="M290.423,380.218c0,12.331,0,24.235,0,36.489c-25.268,0-50.278,0-75.683,0
		c0-12.043,0-24.077,0-36.489C239.863,380.218,264.875,380.218,290.423,380.218z"/>
	<path style="fill:#F2F2F2;" d="M623.391,380.24c0,12.263,0,24.167,0,36.445c-25.244,0-50.255,0-75.676,0
		c0-11.977,0-24.011,0-36.445C572.785,380.24,597.79,380.24,623.391,380.24z"/>
	<path style="fill:#F2F2F2;" d="M341.241,283.901c0-12.07,0-23.999,0-36.326c1.197-0.119,2.454-0.353,3.712-0.354
		c21.301-0.023,42.602,0.052,63.902-0.09c3.205-0.021,4.865,0.822,5.524,4.064c2.175,10.693,4.526,21.35,6.955,32.705
		C393.871,283.901,367.84,283.901,341.241,283.901z"/>
	<path style="fill:#F2F2F2;" d="M342.04,424.35c25.336,0,50.237,0,75.489,0c0,12.195,0,24.229,0,36.604c-25.095,0-50.107,0-75.489,0
		C342.04,448.869,342.04,436.837,342.04,424.35z"/>
	<path style="fill:#F2F2F2;" d="M583.76,424.567c0,12.064,0,23.987,0,36.319c-25.01,0-50.03,0-75.473,0c0-11.836,0-23.884,0-36.319
		C533.108,424.567,558.143,424.567,583.76,424.567z"/>
	<path style="fill:#F2F2F2;" d="M258.467,247.408c25.379,0,50.286,0,75.531,0c0,12.228,0,24.256,0,36.598
		c-25.151,0-50.176,0-75.531,0C258.467,271.87,258.467,259.834,258.467,247.408z"/>
	<path style="fill:#F2F2F2;" d="M583.791,247.506c0,12.327,0,24.253,0,36.494c-25.214,0-50.235,0-75.592,0
		c0-12.106,0-24.148,0-36.494C533.293,247.506,558.325,247.506,583.791,247.506z"/>
	<path style="fill:#F2F2F2;" d="M591.355,284.032c0-12.48,0-24.389,0-36.561c25.281,0,50.304,0,75.634,0c0,12.218,0,24.247,0,36.561
		C641.746,284.032,616.724,284.032,591.355,284.032z"/>
	<path style="fill:#F2F2F2;" d="M381.406,593.752c0-12.502,0-24.418,0-36.63c25.139,0,49.996,0,75.161,0c0,12.276,0,24.311,0,36.63
		C431.449,593.752,406.598,593.752,381.406,593.752z"/>
	<path style="fill:#F2F2F2;" d="M298.2,468.816c25.178,0,50.202,0,75.518,0c0,12.059,0,23.934,0,36.084c-25.161,0-50.185,0-75.518,0
		C298.2,492.892,298.2,481.016,298.2,468.816z"/>
	<path style="fill:#F2F2F2;" d="M175.196,335.568c25.179,0,50.072,0,75.398,0c0,12.103,0,24.265,0,36.66c-25.117,0-50.13,0-75.398,0
		C175.196,359.906,175.196,347.868,175.196,335.568z"/>
	<path style="fill:#F2F2F2;" d="M258.416,372.184c0-12.206,0-24.136,0-36.472c25.077,0,50.115,0,75.539,0
		c0,12.063,0,24.102,0,36.472C308.777,372.184,283.735,372.184,258.416,372.184z"/>
	<path style="fill:#F2F2F2;" d="M342.002,335.582c25.212,0,50.138,0,75.471,0c0,12.08,0,24.122,0,36.548c-25.07,0-50.104,0-75.471,0
		C342.002,359.947,342.002,347.903,342.002,335.582z"/>
	<path style="fill:#F2F2F2;" d="M373.746,239.814c-25.5,0-50.392,0-75.568,0c0-12.305,0-24.344,0-36.666c25.275,0,50.289,0,75.568,0
		C373.746,215.436,373.746,227.484,373.746,239.814z"/>
	<path style="fill:#F2F2F2;" d="M508.065,372.145c0-12.289,0-24.211,0-36.486c25.18,0,50.197,0,75.568,0c0,12.04,0,24.078,0,36.486
		C558.613,372.145,533.602,372.145,508.065,372.145z"/>
	<path style="fill:#F2F2F2;" d="M667.047,335.592c0,12.283,0,24.215,0,36.533c-25.199,0-50.246,0-75.623,0
		c0-12.142,0-24.194,0-36.533C616.569,335.592,641.484,335.592,667.047,335.592z"/>
	<path style="fill:#F2F2F2;" d="M539.764,504.999c-25.333,0-50.235,0-75.451,0c0-12.055,0-23.941,0-36.167
		c25.064,0,50.086,0,75.451,0C539.764,480.835,539.764,492.704,539.764,504.999z"/>
	<path style="fill:#F2F2F2;" d="M341.941,549.177c0-12.261,0-24.194,0-36.51c25.154,0,50.2,0,75.593,0c0,12.105,0,24.151,0,36.51
		C392.411,549.177,367.489,549.177,341.941,549.177z"/>
	<path style="fill:#F2F2F2;" d="M334.071,424.595c0,12.021,0,23.938,0,36.278c-25.121,0-50.256,0-75.663,0
		c0-12.04,0-23.952,0-36.278C283.523,424.595,308.663,424.595,334.071,424.595z"/>
	<path style="fill:#F2F2F2;" d="M373.823,380.193c0,12.356,0,24.278,0,36.533c-25.199,0-50.212,0-75.579,0
		c0-12.117,0-24.149,0-36.533C323.342,380.193,348.358,380.193,373.823,380.193z"/>
	<path style="fill:#F2F2F2;" d="M456.592,380.148c0,12.534,0,24.436,0,36.623c-25.135,0-49.986,0-75.154,0
		c0-12.252,0-24.285,0-36.623C406.539,380.148,431.395,380.148,456.592,380.148z"/>
	<path style="fill:#F2F2F2;" d="M464.188,416.711c0-12.294,0-24.219,0-36.505c25.194,0,50.203,0,75.566,0
		c0,12.054,0,24.104,0,36.505C514.718,416.711,489.704,416.711,464.188,416.711z"/>
	<path style="fill:#F2F2F2;" d="M539.743,239.884c-25.256,0-50.143,0-75.387,0c0-12.191,0-24.227,0-36.642
		c25.005,0,50.014,0,75.387,0C539.743,215.255,539.743,227.306,539.743,239.884z"/>
	<path style="fill:#F2F2F2;" d="M175.275,247.371c25.24,0,50.149,0,75.405,0c0,12.152,0,24.196,0,36.594
		c-24.994,0-50.015,0-75.405,0C175.275,271.962,175.275,259.918,175.275,247.371z"/>
	<path style="fill:#F2F2F2;" d="M381.503,468.73c25.105,0,49.834,0,74.968,0c0,12.044,0,23.9,0,36.101c-24.846,0-49.716,0-74.968,0
		C381.503,493.033,381.503,481.155,381.503,468.73z"/>
	<path style="fill:#F2F2F2;" d="M547.557,505.17c0-12.508,0-24.427,0-36.734c25.203,0,50.245,0,75.534,0
		c1.327,4.193,0.677,7.668-2.98,10.899c-8.603,7.604-16.871,15.586-25.404,23.272c-1.369,1.233-3.394,2.427-5.132,2.452
		C575.769,505.258,561.959,505.17,547.557,505.17z"/>
	<path style="fill:#F2F2F2;" d="M290.413,468.049c0,12.747,0,24.666,0,37.088c-13.362,0-26.462,0.035-39.561-0.069
		c-1.003-0.008-2.167-0.807-2.971-1.547c-10.402-9.571-20.807-19.142-31.046-28.886c-1.237-1.177-1.508-3.369-2.227-5.091
		c1.533-0.35,3.063-0.992,4.6-1.007c21.796-0.213,43.592-0.341,65.389-0.487C286.401,468.039,288.207,468.049,290.413,468.049z"/>
	<path style="fill:#F2F2F2;" d="M690.414,328.585c-19.826,0-39.398,0-59.267,0c0-12.33,0-24.389,0-36.76c19.592,0,38.995,0,59.267,0
		C690.414,303.992,690.414,316.042,690.414,328.585z"/>
	<path style="fill:#F2F2F2;" d="M179.43,424.401c23.686,0,47.371,0,71.326,0c0,12.259,0,24.301,0,36.875
		c-14.935,0-29.682,0.04-44.428-0.082c-1.097-0.009-2.528-0.933-3.223-1.865c-8.319-11.156-16.527-22.394-24.765-33.611
		C178.704,425.279,179.067,424.84,179.43,424.401z"/>
	<path style="fill:#F2F2F2;" d="M591.436,424.379c23.901,0,47.327,0,72.056,0c-6.114,8.875-12.2,16.742-17.213,25.243
		c-5.507,9.339-12.686,13.019-23.631,11.896c-10.193-1.046-20.577-0.223-31.212-0.223
		C591.436,448.861,591.436,436.814,591.436,424.379z"/>
	<path style="fill:#F2F2F2;" d="M206.934,291.516c0,12.591,0,24.525,0,36.9c-18.581,0-37.076,0-56.312,0
		c0-8.795-0.372-17.57,0.095-26.299c0.569-10.618,0.874-10.601,11.761-10.601C177.091,291.516,191.704,291.516,206.934,291.516z"/>
	<path style="fill:#F2F2F2;" d="M260.04,512.529c24.814,0,49.21,0,73.95,0c0,12.271,0,24.3,0,36.92
		c-8.782,0-17.378,0.047-25.973-0.061c-1.047-0.013-2.228-0.675-3.104-1.351c-14.752-11.368-29.466-22.785-44.177-34.207
		C260.509,513.653,260.433,513.28,260.04,512.529z"/>
	<path style="fill:#F2F2F2;" d="M508.159,549.442c0-12.522,0-24.577,0-36.895c24.498,0,48.716,0,73.903,0
		c-1.722,1.613-2.775,2.775-3.997,3.719c-13.441,10.387-26.897,20.755-40.386,31.078c-1.152,0.881-2.563,1.977-3.874,2.005
		C525.354,549.53,516.897,549.442,508.159,549.442z"/>
	<path style="fill:#F2F2F2;" d="M631.173,380.092c17.147,0,33.758,0,51.7,0c-3.824,9.676-7.698,18.593-10.857,27.756
		c-2.531,7.34-6.68,10.224-14.685,9.406c-8.532-0.872-17.221-0.196-26.158-0.196C631.173,404.543,631.173,392.497,631.173,380.092z"
		/>
	<path style="fill:#F2F2F2;" d="M206.938,380.264c0,12.211,0,24.13,0,36.756c-10.496,0-20.899,0.048-31.299-0.091
		c-0.836-0.011-2.041-1.139-2.423-2.028c-4.824-11.242-9.528-22.536-14.607-34.638C175.421,380.264,190.913,380.264,206.938,380.264
		z"/>
	<path style="fill:#F2F2F2;" d="M464.284,594.034c0-12.611,0-24.677,0-36.976c20.039,0,39.795,0,60.432,0
		c-1.58,1.452-2.566,2.429-3.625,3.32c-12.486,10.507-24.957,21.033-37.517,31.451c-1.295,1.074-3.109,2.007-4.737,2.106
		C474.197,594.216,469.528,594.034,464.284,594.034z"/>
	<path style="fill:#F2F2F2;" d="M316.462,556.982c19.879,0,38.329,0,57.164,0c0,12.159,0,24.217,0,36.853
		c-6.618,0.035-12.798,1.314-18.939-4.627c-10.491-10.151-22.287-18.954-33.534-28.323
		C319.929,559.866,318.704,558.847,316.462,556.982z"/>
	<path style="fill:#F2F2F2;" d="M673.794,239.885c-14.596,0-28.34,0-42.515,0c0-12.11,0-24.136,0-36.731
		c7.13-0.265,14.002-1.845,19.956,5.384C659.272,218.294,667.394,227.863,673.794,239.885z"/>
	<path style="fill:#F2F2F2;" d="M206.868,203.322c0,12.101,0,24.135,0,36.464c-12.9,0-25.58,0-39.423,0
		c4.142-6.193,7.666-11.927,11.667-17.305c3.66-4.918,8.119-9.247,11.713-14.208C195.003,202.509,200.42,202.051,206.868,203.322z"
		/>
	<path style="fill:#F2F2F2;" d="M381.332,239.627c0-12.374,0-24.292,0-36.892c1.532,0.435,3.026,0.413,3.805,1.148
		c10.715,10.108,18.854,22.025,25.26,35.744C400.248,239.627,390.801,239.627,381.332,239.627z"/>
	<path style="fill:#F2F2F2;" d="M456.56,239.843c-8.509,0-16.579,0-25.372,0c6.154-13.728,14.179-25.406,25.372-36.154
		C456.56,216.275,456.56,227.805,456.56,239.843z"/>
	<path style="fill:#F2F2F2;" d="M167.239,371.984c-9.721,1.557-9.953,1.6-11.637-7.485c-1.747-9.423-2.982-18.941-4.511-28.866
		c5.839,0,10.761,0,16.148,0C167.239,347.722,167.239,359.868,167.239,371.984z"/>
	<path style="fill:#F2F2F2;" d="M691.408,335.569c-2.246,11.791-4.286,23.019-6.658,34.176c-0.242,1.137-2.363,2.262-3.811,2.654
		c-1.696,0.459-3.611,0.107-5.87,0.107c0-12.388,0-24.529,0-36.937C680.195,335.569,685.107,335.569,691.408,335.569z"/>
	<path style="fill:#F2F2F2;" d="M153.559,283.99c1.458-15.855,8.967-35.837,13.874-36.41c0,12.048,0,24.066,0,36.41
		C162.663,283.99,158.122,283.99,153.559,283.99z"/>
	<path style="fill:#F2F2F2;" d="M676.665,246.991c6.751,11.274,9.105,24.139,12.425,37.086c-4.952,0-9.371,0-14.125,0
		c0-12.242,0-24.274,0-36.305C675.531,247.512,676.098,247.252,676.665,246.991z"/>
</g>
</svg>
