<?xml version="1.0" encoding="utf-8"?>
<!-- Generator: Adobe Illustrator 19.1.0, SVG Export Plug-In . SVG Version: 6.00 Build 0)  -->
<!DOCTYPE svg PUBLIC "-//W3C//DTD SVG 1.1//EN" "http://www.w3.org/Graphics/SVG/1.1/DTD/svg11.dtd">
<svg version="1.1" id="Layer_1" xmlns="http://www.w3.org/2000/svg" xmlns:xlink="http://www.w3.org/1999/xlink" x="0px" y="0px"
	 viewBox="0 0 539.174 427.744" style="enable-background:new 0 0 539.174 427.744;" xml:space="preserve">
<g>
	<path style="fill:#CF000F;" d="M0.008,326.754c0-28.32-0.009-56.639,0.004-84.959c0.005-10.246,5.354-15.69,15.731-15.701
		c45.811-0.049,91.623-0.043,137.434-0.006c10.192,0.008,15.899,5.63,15.905,15.712c0.038,57.139,0.034,114.278,0.001,171.417
		c-0.005,8.713-5.611,14.466-14.316,14.477c-46.811,0.064-93.622,0.063-140.432,0.002c-8.988-0.012-14.3-5.668-14.312-14.984
		C-0.017,384.06,0.008,355.407,0.008,326.754z"/>
	<path style="fill:#CF000F;" d="M420.969,253.068c28.33,0,56.662-0.181,84.987,0.173c4.924,0.061,10.304,1.498,14.62,3.859
		c7.111,3.89,9.474,10.756,8.273,18.813c-2.456,16.465-4.827,32.943-7.264,49.411c-2.12,14.326-4.065,28.683-6.488,42.958
		c-2.359,13.898-9.651,19.768-23.65,19.77c-47.161,0.008-94.321,0.009-141.482-0.002c-13.093-0.003-20.815-5.702-23.09-18.697
		c-3.415-19.505-5.992-39.156-8.888-58.751c-1.752-11.857-3.581-23.706-5.102-35.593c-1.382-10.802,4.966-19.318,15.647-21.305
		c2.599-0.483,5.296-0.607,7.948-0.61C364.643,253.052,392.806,253.068,420.969,253.068z"/>
	<path style="fill:#CF000F;" d="M36.604,219.226c-2.452-12.972-5.419-26.101-7.345-39.38c-4.384-30.241-5.319-60.7-4.817-91.228
		c0.061-3.715,1.385-6.174,4.101-8.499C42.982,67.753,60.162,61.341,78.267,56.87c1.13-0.279,2.267-0.526,3.392-0.822
		c0.31-0.082,0.589-0.284,1.262-0.622c-0.507-1.259-0.962-2.585-1.56-3.845C74.439,37.004,67.495,22.437,60.556,7.867
		c-0.429-0.901-1.284-1.841-1.203-2.694c0.165-1.75,0.831-3.452,1.29-5.174c1.461,0.772,3.049,1.382,4.334,2.381
		c0.7,0.544,0.884,1.75,1.307,2.654c5.574,11.902,11.144,23.806,16.733,35.701c0.684,1.456,1.476,2.861,2.93,4.049
		c-1.459-11.47-2.915-22.939-4.38-34.408c-0.105-0.825-0.613-1.786-0.342-2.438c0.772-1.853,1.85-3.579,2.808-5.355
		c1.269,1.438,3.417,2.742,3.66,4.337c1.357,8.882,2.24,17.837,3.308,26.764c0.828,6.917,1.689,13.831,2.543,20.813
		c15.029-1.15,29.712-2.274,44.785-3.428c0,56.603,0,112.177,0,168.156C104.669,219.226,71.123,219.226,36.604,219.226z"/>
	<path style="fill:#CF000F;" d="M455.795,246.492c-23.763,0-47.224,0-71.141,0c2.75-7.223,5.418-14.231,8.535-22.419
		c-2.469,1.109-3.769,1.623-5.007,2.258c-34.082,17.479-68.605,16.002-103.278,2.123c-8.813-3.528-12.633-13.395-9.312-22.036
		c3.282-8.54,12.073-12.381,21.378-9.012c15.857,5.741,32.064,8.866,48.966,6.977c19.159-2.142,34.863-11.466,48.859-24.088
		c4.198-3.786,8.043-7.963,12.047-11.964c10.788-10.78,26.264-13.693,39.528-7.44c13.419,6.327,21.013,19.769,18.908,35.275
		c-1.987,14.636-4.843,29.156-7.42,43.709C457.46,242.121,456.503,244.268,455.795,246.492z"/>
	<path style="fill:#CF000F;" d="M466.05,109.286c-0.009,20.058-13.861,37.763-33.632,40.882c-10.138,1.6-19.134-1.419-27.017-7.71
		c-21.036-16.788-21.377-52.354-0.751-69.629c16.786-14.059,40.393-10.627,53.229,7.803
		C463.464,88.651,466.148,97.609,466.05,109.286z"/>
	<path style="fill:#CF000F;" d="M530.6,257.39c-7.644-9.115-17.294-11.223-28.149-10.858c-12.289,0.413-24.603,0.095-37.48,0.095
		c1.873-12.284,3.647-24.068,5.476-35.843c0.74-4.766,1.318-9.583,2.464-14.255c2.844-11.591,9.974-17.06,21.833-17.106
		c7.831-0.03,15.663-0.069,23.493,0.01c14.959,0.151,22.572,8.563,20.643,23.206c-2.24,16.996-4.812,33.949-7.268,50.916
		C531.455,254.639,531.057,255.689,530.6,257.39z"/>
	<path style="fill:#CF000F;" d="M312.608,316.821c2.623,17.642,4.6,34.333,7.798,50.788c1.303,6.706-0.743,10.827-4.588,15.766
		c-8.06,10.353-15.473,21.226-22.84,32.097c-6.468,9.544-17.281,13.974-27.694,10.777c-14.326-4.399-20.893-19.508-13.768-32.829
		c3.909-7.308,8.223-14.567,13.417-20.988c14.012-17.321,28.583-34.19,42.972-51.204C309.054,319.869,310.51,318.77,312.608,316.821
		z"/>
	<path style="fill:#CF000F;" d="M143.372,68.403c1.543,2.521,3.783,4.859,4.498,7.596c2.18,8.344,4.498,16.76,5.459,25.295
		c3.167,28.1,3.124,56.195-2.43,84.069c-1.966,9.865-4.134,13.949-8.754,17.247c0-44.743,0-89.133,0-133.522
		C142.554,68.86,142.963,68.632,143.372,68.403z"/>
	<path style="fill:#CF000F;" d="M461.97,394.076c8.471,0,16.241-0.096,24.001,0.125c0.935,0.027,2.498,1.683,2.624,2.724
		c1.221,10.051,2.197,20.133,3.275,30.514c-6.65,0-13.079,0-19.818,0C468.773,416.588,465.479,405.689,461.97,394.076z"/>
	<path style="fill:#CF000F;" d="M379.733,394.072c-3.567,11.797-6.821,22.556-10.115,33.448c-6.32,0-12.429,0-19.157,0
		c0.899-10.547,1.726-20.918,2.775-31.266c0.082-0.808,1.706-2.066,2.637-2.087C363.491,393.998,371.115,394.072,379.733,394.072z"
		/>
	<path style="fill:#CF000F;" d="M277.455,197.134c-2.019,3.528-3.631,6.783-5.698,9.718c-0.714,1.013-2.744,1.973-3.857,1.695
		c-10.796-2.703-21.521-5.69-32.275-8.561c-5.551-1.482-3.037-5.246-2.402-8.43c0.699-3.504,2.184-5.849,6.477-4.659
		C252.183,190.359,264.704,193.687,277.455,197.134z"/>
</g>
</svg>
