<?xml version="1.0" encoding="utf-8"?>
<!-- Generator: Adobe Illustrator 19.1.0, SVG Export Plug-In . SVG Version: 6.00 Build 0)  -->
<!DOCTYPE svg PUBLIC "-//W3C//DTD SVG 1.1//EN" "http://www.w3.org/Graphics/SVG/1.1/DTD/svg11.dtd">
<svg version="1.1" id="Layer_1" xmlns="http://www.w3.org/2000/svg" xmlns:xlink="http://www.w3.org/1999/xlink" x="0px" y="0px"
	 viewBox="0 0 841.89 842" style="enable-background:new 0 0 841.89 842;" xml:space="preserve">
<circle style="fill:#F22613;" cx="420.945" cy="421" r="421"/>
<g>
	<path style="fill:#F2F2F2;" d="M449.639,588.439c9.286,12.356,18.273,24.315,27.779,36.963
		c-18.344,12.6-36.271,25.004-54.379,37.137c-1.15,0.77-4.129,0.012-5.556-1.012c-25.838-18.534-52.143-36.482-77.196-56.031
		c-44.366-34.621-85.48-72.822-121.243-116.469c-23.112-28.206-43.757-58.076-56.347-92.586
		c-21.486-58.9-14.333-114.444,24.161-164.105c28.541-36.82,68.118-53.671,114.478-53.011c47.043,0.67,85.189,21.105,116.3,55.658
		c1,1.11,1.97,2.247,3.245,3.703c5.168-5.486,10.243-10.875,15.75-16.72c10.503,11.187,20.716,22.064,31.428,33.474
		c-21.992,19.926-32.318,47.261-46.906,72.992c-1.145-1.953-2.047-3.391-2.854-4.881c-7.442-13.757-14.248-27.903-22.428-41.206
		c-17.079-27.775-40.784-47.435-73.198-54.639c-57.666-12.817-109.998,21.513-122.626,79.387
		c-7.781,35.66-0.139,68.277,17.248,99.423c19.754,35.386,45.833,65.807,74.181,94.396c38.578,38.906,80.738,73.582,125.347,105.346
		c3.418,2.434,5.54,2.12,8.614-0.222C433.244,600.091,441.297,594.471,449.639,588.439z"/>
	<path style="fill:#F2F2F2;" d="M614.816,254.659c10.65-10.935,21.083-21.647,31.905-32.759
		c30.64,31.697,43.22,70.115,44.422,113.875c-15.293,0-30.182,0-45.709,0C644.559,305.356,636.339,277.058,614.816,254.659z"/>
	<path style="fill:#F2F2F2;" d="M639.644,372.996c14.86,4.717,29.07,9.228,43.566,13.83
		c-12.436,37.641-33.559,69.649-58.139,100.301c-11.902-9.658-23.48-19.054-35.459-28.775
		C610.297,432.278,628.81,405.208,639.644,372.996z"/>
	<path style="fill:#F2F2F2;" d="M498.717,234.6c-6.373-13.886-12.593-27.438-19.081-41.575
		c41.135-17.908,81.933-18.639,123.737-1.306c-6.273,14.06-12.386,27.759-18.645,41.788
		C556.003,221.569,527.585,222.244,498.717,234.6z"/>
	<path style="fill:#F2F2F2;" d="M484.475,562.253c25.916-23.743,51.537-47.216,77.62-71.111c10.267,9.753,21.18,20.12,33.178,31.517
		c-27.326,25.091-54.272,49.832-81.769,75.08C503.15,585.082,493.633,573.448,484.475,562.253z"/>
</g>
</svg>
