<?xml version="1.0" encoding="utf-8"?>
<!-- Generator: Adobe Illustrator 19.1.0, SVG Export Plug-In . SVG Version: 6.00 Build 0)  -->
<!DOCTYPE svg PUBLIC "-//W3C//DTD SVG 1.1//EN" "http://www.w3.org/Graphics/SVG/1.1/DTD/svg11.dtd">
<svg version="1.1" id="Layer_1" xmlns="http://www.w3.org/2000/svg" xmlns:xlink="http://www.w3.org/1999/xlink" x="0px" y="0px"
	 viewBox="0 0 308.038 583.984" style="enable-background:new 0 0 308.038 583.984;" xml:space="preserve">
<g>
	<path style="fill:#CF000F;" d="M307.874,217.939c0,37.825,0.497,75.659-0.238,113.47c-0.305,15.717-1.846,31.694-5.266,47.007
		c-7.279,32.591-29.362,51.859-60.345,61.986c-19.625,6.414-39.866,9.261-60.366,10.319c-32.852,1.696-65.625,1.47-97.848-6.467
		c-18.972-4.673-36.692-12.048-51.485-25.229C13.683,402.413,5.063,380.75,2.119,356.627c-1.409-11.539-1.957-23.247-1.984-34.881
		c-0.171-73.483-0.211-146.967,0.063-220.449c0.036-9.731,1.171-19.676,3.423-29.134C8.296,52.53,20.824,38.354,37.548,27.602
		c24.661-15.855,51.933-23.776,80.892-26.1c31.14-2.499,62.236-2.078,93.193,2.769c25.605,4.009,48.851,13.479,70.17,28.326
		c19.553,13.617,25.942,32.948,26.043,55.372c0.135,29.993,0.048,59.986,0.055,89.979c0.003,13.33,0,26.661,0,39.991
		C307.892,217.939,307.883,217.939,307.874,217.939z M281.265,164.655c0.008,0,0.016,0,0.024,0c0-16.331-0.142-32.663,0.042-48.992
		c0.165-14.596-4.473-27.449-13.23-38.943c-10.338-13.569-23.79-23.246-39.078-30.361c-33.991-15.818-69.659-19.352-106.388-13.454
		c-24.687,3.964-47.675,12.397-67.41,28.215C36.382,76.222,25.859,95.13,26.507,120.207c0.801,30.974,0.305,61.986,0.142,92.98
		c-0.076,14.55,4.262,27.506,12.765,39.16c9.533,13.066,21.973,22.734,36.283,29.936c36.684,18.463,75.356,22.044,115.268,14.313
		c24.758-4.795,47.482-14.348,66.291-31.653c14.662-13.489,23.983-29.731,24.005-50.298
		C281.279,197.982,281.265,181.318,281.265,164.655z M153.885,412.52c22.234,0.047,40.066-17.639,40.157-39.831
		c0.091-22.177-17.66-40.226-39.71-40.377c-22.331-0.153-40.414,17.824-40.416,40.179
		C113.914,394.689,131.67,412.472,153.885,412.52z M60.835,332.315c-15.554-0.087-28.364,12.537-28.527,28.113
		c-0.162,15.447,12.581,28.379,28.132,28.55c15.433,0.169,28.399-12.647,28.491-28.161C89.023,345.23,76.377,332.402,60.835,332.315
		z M219.016,360.853c0.109,15.498,13.124,28.32,28.548,28.123c15.548-0.199,28.306-13.168,28.123-28.587
		c-0.185-15.563-13.046-28.19-28.592-28.073C231.548,332.432,218.907,345.279,219.016,360.853z"/>
	<path style="fill:#CF000F;" d="M134.311,461.489c13.264,0,26.047,0,39.237,0c0,40.769,0,81.432,0,122.495
		c-12.866,0-25.891,0-39.237,0C134.311,543.319,134.311,502.648,134.311,461.489z"/>
	<path style="fill:#CF000F;" d="M64.131,225.494c0-47.525,0-94.623,0-142.084c59.858,0,119.542,0,179.548,0
		c0,47.259,0,94.486,0,142.084C183.985,225.494,124.289,225.494,64.131,225.494z"/>
</g>
</svg>
