<?xml version="1.0" encoding="utf-8"?>
<!-- Generator: Adobe Illustrator 19.1.0, SVG Export Plug-In . SVG Version: 6.00 Build 0)  -->
<!DOCTYPE svg PUBLIC "-//W3C//DTD SVG 1.1//EN" "http://www.w3.org/Graphics/SVG/1.1/DTD/svg11.dtd">
<svg version="1.1" id="Layer_1" xmlns="http://www.w3.org/2000/svg" xmlns:xlink="http://www.w3.org/1999/xlink" x="0px" y="0px"
	 viewBox="0 0 444.102 536.706" style="enable-background:new 0 0 444.102 536.706;" xml:space="preserve">
<g>
	<path style="fill:#F22613;" d="M287.951,536.706c-12.023,0-23.303,0-34.875,0c-11.423-72.311-22.817-144.434-34.211-216.558
		c-0.293-0.022-0.587-0.044-0.88-0.066C206.589,392.2,195.193,464.318,183.76,536.67c-11.494,0-22.773,0-34.889,0
		c6.057-116.802,12.115-233.609,18.172-350.415c-0.314-0.112-0.628-0.224-0.942-0.335c-6.875,12.966-13.75,25.931-20.913,39.441
		c-1.735-0.863-3.321-1.596-4.857-2.423c-19.633-10.572-39.519-20.709-58.787-31.91c-11.232-6.529-23.185-9.659-35.661-11.9
		c-8.102-1.455-8.076-1.601-9.448-10.176c15.177,0,30.403-1.114,45.362,0.407c9.34,0.95,18.278,5.869,27.392,9.018
		c5.47,1.89,10.932,3.8,17.019,5.918c1.954-9.3,3.842-18.176,5.681-27.063c4.315-20.853,8.692-41.694,12.819-62.585
		c0.64-3.241,1.703-4.417,5.096-4.41c45.819,0.101,91.638,0.095,137.458,0.01c3.155-0.006,4.205,1.096,4.82,4.138
		c5.829,28.865,11.841,57.692,17.811,86.528c0.194,0.937,0.499,1.851,0.898,3.306c8.222-2.848,16.369-5.168,24.101-8.461
		c13.288-5.66,26.94-7.918,41.332-6.971c7.944,0.523,15.951,0.094,23.957,0.094c-0.758,8.659-0.72,8.908-8.565,10.098
		c-14.295,2.169-27.518,6.766-40.111,14.117c-17.667,10.312-35.943,19.582-53.961,29.292c-1.739,0.937-3.499,1.833-5.837,3.056
		c-7.013-13.225-13.912-26.236-20.812-39.248c-0.365,0.036-0.729,0.072-1.094,0.108C275.842,302.97,281.886,419.637,287.951,536.706
		z"/>
	<path style="fill:#F22613;" d="M64.182,162.146c-35.695-0.08-64.337-28.953-64.182-64.702
		c0.153-35.362,29.057-63.942,64.557-63.832c35.493,0.11,64.211,28.81,64.247,64.206C128.84,133.418,99.901,162.225,64.182,162.146z
		 M87.188,67.713c-6.821-1.544-13.051-2.954-19.312-4.37c-0.147-2.378-0.289-4.664-0.442-7.138c-2.269,0-4.28,0-6.334,0
		c-0.136,2.818-0.254,5.249-0.369,7.64c-3.065,0.834-5.876,1.331-8.476,2.362c-5.852,2.32-10.451,5.997-11.267,12.753
		c-0.886,7.327,1.898,13.074,8.239,16.851c2.834,1.688,6.009,2.796,8.942,4.333c1.042,0.546,2.574,1.553,2.608,2.402
		c0.231,5.73,0.121,11.473,0.121,18.116c-7.251-1.707-13.618-3.206-19.975-4.703c-1.738,9.638-1.36,10.326,7.743,12.118
		c3.994,0.786,8.067,1.175,12.417,1.788c0,3.52,0,6.626,0,9.836c2.293,0,4.195,0,6.353,0c0.181-3.684,0.348-7.098,0.498-10.142
		c3.668-1.121,6.965-1.791,9.971-3.12c6.027-2.665,9.904-7.099,10.339-14.045c0.436-6.961-2.724-11.828-8.63-15.045
		c-2.909-1.584-6.066-2.71-8.984-4.279c-1.146-0.616-2.722-1.835-2.774-2.847c-0.275-5.393-0.13-10.807-0.13-16.904
		c5.716,1.311,10.528,2.414,15.741,3.61C84.561,74.218,85.665,71.484,87.188,67.713z"/>
	<path style="fill:#F22613;" d="M382.142,72.461c2.742-3.054,5.87-7.216,9.665-10.639c11.015-9.935,24.691-11.531,36.946-4.732
		c11.612,6.443,17.211,19.384,14.797,33.793c-2.326,13.886-9.406,25.343-19.206,34.839c-13.606,13.185-27.99,25.568-43.088,39.243
		c-15.204-13.984-30.142-27.127-44.304-41.06c-5.225-5.14-9.217-11.823-12.701-18.371c-4.775-8.974-6.731-18.773-4.455-28.997
		c4.298-19.308,26.21-29.708,43.42-19.841C370.229,60.717,375.87,67.131,382.142,72.461z"/>
	<path style="fill:#F22613;" d="M181.828,38.581C181.806,17.213,198.842-0.023,219.96,0c21.106,0.023,38.097,17.287,38.062,38.673
		c-0.035,21.117-16.952,38.195-37.908,38.268C198.86,77.016,181.851,59.974,181.828,38.581z"/>
	<path style="fill:#F22613;" d="M67.874,119.076c0-5.125,0-9.858,0-14.612c5.649,0.833,8.561,3.494,8.491,7.648
		C76.297,116.155,73.905,118.224,67.874,119.076z"/>
	<path style="fill:#F22613;" d="M60.692,74.025c0,5.008,0,9.755,0,15.113c-4.078-1.347-7.662-2.822-7.865-7.671
		C52.611,76.344,56.144,74.818,60.692,74.025z"/>
</g>
</svg>
