<?xml version="1.0" encoding="utf-8"?>
<!-- Generator: Adobe Illustrator 19.1.0, SVG Export Plug-In . SVG Version: 6.00 Build 0)  -->
<!DOCTYPE svg PUBLIC "-//W3C//DTD SVG 1.1//EN" "http://www.w3.org/Graphics/SVG/1.1/DTD/svg11.dtd">
<svg version="1.1" id="Layer_1" xmlns="http://www.w3.org/2000/svg" xmlns:xlink="http://www.w3.org/1999/xlink" x="0px" y="0px"
	 viewBox="0 0 1128.902 551.788" style="enable-background:new 0 0 1128.902 551.788;" xml:space="preserve">
<g>
	<path style="fill:#CF0312;" d="M590.824,62.75c4.889-1.576,9.693-3.52,14.682-4.659c15.14-3.457,28.773,5.838,30.961,21.142
		c0.701,4.904,0.508,9.941,0.634,14.92c0.086,3.403,0.016,6.811,0.016,10.216c0.705,0.222,1.409,0.444,2.114,0.665
		c0.941-1.701,2.302-3.298,2.754-5.121c2.442-9.858,2.362-9.761,12.496-9.549c11.143,0.233,19.029,4.635,22.7,15.791
		c2.53,7.691,5.828,15.13,9.979,22.749c0.758-3.564,1.303-7.194,2.375-10.661c0.458-1.483,2.012-3.735,3.074-3.738
		c5.782-0.018,11.793-0.312,17.295,1.131c8.318,2.181,14.21,11.529,13.453,20.026c-0.174,1.951-1.88,5.182-3.255,5.394
		c-18.57,2.858-36.882,10.207-56.072,4.091c-4.398-1.402-8.65-3.263-13.604-5.155c2.509-3.739,4.677-6.968,6.844-10.197
		c-0.206-0.336-0.411-0.672-0.617-1.008c-2.416,0.734-4.87,1.363-7.242,2.219c-14.689,5.3-21.689,2.854-29.442-10.627
		c-2.563-4.458-4.585-9.226-7.122-13.702c-5.336-9.414-13.265-15.821-22.852-20.857c-5.907-3.103-11.197-7.7-16.087-12.339
		c-5.554-5.269-11.055-9.734-19.09-10.764c-6.469-0.829-10.347-8.426-6.771-14.87c4.215-7.595,9.063-15.842,15.844-20.766
		c9.419-6.84,21.16-6.73,31.843-1.205c6.173,3.192,11.741,7.54,17.688,11.192c1.133,0.696,2.77,0.573,4.174,0.828
		c-0.184-1.431-0.055-3.003-0.623-4.261c-0.878-1.944-2.233-3.674-3.383-5.491c7.414-4.876,16.761-3.644,22.643,3.855
		c3.74,4.769,6.219,10.533,9.195,15.888c0.772,1.389,1.289,2.92,1.981,4.519c0.524-0.411,0.867-0.54,0.909-0.734
		c1.801-8.277,1.823-7.855,10.386-8.375c13.252-0.805,22.337,4.752,28.163,16.438c2.5,5.015,5.382,9.839,8.116,14.797
		c4.967-5.469,7.54-5.467,13.199-0.048c6.423,6.151,8.982,14.009,10.373,23.908c-10.63-11.377-22.633-16.55-37.693-14.423
		c2.469,1.684,4.749,3.807,7.445,4.961c5.791,2.479,11.804,4.436,17.711,6.647c6.387,2.39,8.76,6.192,8.127,13.255
		c-15.661,0.764-29.185-4.441-39.997-15.561c-2.803-2.883-3.631-8.043-4.523-12.332c-0.94-4.524-0.872-9.257-1.378-15.57
		c-2.994,4.298-5.315,7.515-7.515,10.813c-4.923,7.381-8.228,8.203-15.399,2.907c-2.719-2.008-5.233-4.759-6.842-7.715
		c-5.221-9.588-12.853-15.86-23.252-19.091c-8.083-2.512-15.985-5.614-24.092-8.038c-2.911-0.871-6.184-0.528-9.292-0.739
		c-0.089,0.558-0.178,1.117-0.267,1.675c4.813,2.045,9.626,4.09,14.683,6.239c-2.343,3.708-4.448,7.039-6.553,10.371
		c-0.18,0.465-0.361,0.93-0.541,1.395C589.727,63.04,590.276,62.895,590.824,62.75z"/>
	<path style="fill:#CF0312;" d="M500.017,44.863c-2.917,0-6.016-0.644-8.719,0.116c-9.588,2.697-19.066,5.797-28.537,8.893
		c-8.069,2.638-13.884,7.911-18.664,14.976c-2.965,4.382-7.118,8.295-11.509,11.287c-4.652,3.17-7.714,1.982-10.941-2.746
		c-2.656-3.892-5.044-7.967-8.63-11.638c-0.51,4.391-1.074,8.776-1.519,13.173c-0.908,8.987-5.265,15.482-13.368,19.676
		c-10.032,5.192-20.247,9.238-31.841,7.639c-0.971-6.398,1.479-10.511,7.648-12.705c5.945-2.114,12.017-3.885,17.901-6.15
		c2.812-1.083,5.318-2.962,7.693-5.049c-14.771-3.578-25.448,5.272-37.421,12.21c1.887-8.804,4.42-16.553,10.865-22.496
		c5.848-5.392,7.61-5.368,13.142,0.668c3.476-5.912,6.78-11.807,10.346-17.538c6.681-10.737,20.599-16.097,32.663-12.531
		c1.326,0.392,2.693,1.909,3.279,3.24c0.827,1.88,0.944,4.073,1.327,5.948c3.668-6.201,6.923-12.764,11.161-18.616
		c6.111-8.437,14.615-9.984,24.034-5.041c-1.477,2.225-3.111,4.331-4.307,6.661c-0.469,0.915,0.041,2.332,0.105,3.521
		c1.034-0.071,2.289,0.21,3.065-0.274c3.805-2.377,7.439-5.026,11.213-7.455c10.303-6.633,21.276-9.382,33.209-5.07
		c2.086,0.754,4.374,2.063,5.635,3.795c5.273,7.243,10.498,14.559,15.138,22.214c3.553,5.862,0.144,12.943-6.627,13.375
		c-7.847,0.501-13.443,4.395-18.537,9.585c-6.138,6.253-13.042,11.19-21.197,14.615c-10.502,4.41-16.987,13.02-22.156,22.799
		c-2.095,3.963-4.216,7.939-6.674,11.68c-6.144,9.35-13.411,11.689-24.087,8.005c-3.557-1.227-7.08-2.55-11.437-2.935
		c2.093,3.378,4.187,6.757,6.41,10.345c-13.572,6.056-27.207,9.101-41.876,5.485c-8.225-2.028-16.588-3.531-24.929-5.044
		c-4.202-0.762-6.208-3.004-5.875-7.178c1.341-16.793,15.924-22.923,29.937-20.207c1.712,0.332,3.531,2.967,4.254,4.922
		c1.257,3.397,1.697,7.096,2.725,11.787c1.958-4.656,3.532-8.465,5.158-12.251c2.098-4.886,4.267-9.741,6.353-14.632
		c3.018-7.076,8.315-11.006,15.976-11.755c1.82-0.178,3.631-0.513,5.455-0.589c10.685-0.448,10.904-0.251,12.586,10.51
		c0.398,2.545,0.731,5.131,5.195,4.335c0-5.847-0.12-11.772,0.05-17.688c0.086-2.976,0.42-6.004,1.119-8.894
		c3.774-15.609,17.297-23.306,32.924-18.74c4.565,1.334,9.011,3.077,14.954,5.132c-2.843-4.675-4.926-8.101-7.247-11.919
		c5.093-2.016,9.925-3.929,14.758-5.841C500.134,45.934,500.076,45.398,500.017,44.863z"/>
	<path style="fill:#CF0211;" d="M552.495,330.398c-3.702-6.655-7.631-13.196-11.049-19.994c-4.396-8.745-3.853-10.973,3.073-17.893
		c3.659-3.656,5.159-8.099,4.607-13.172c-1.007-9.263-2.065-18.522-3.244-27.765c-1.148-9.006,2.288-14.072,11.312-15.412
		c8.047-1.195,16.249-1.442,24.24-2.89c5.154-0.934,10.107-3.142,15.034-5.075c1.685-0.661,3.015-2.227,4.507-3.379
		c-0.153-0.488-0.306-0.976-0.459-1.464c-4.125,0.417-8.258,0.77-12.374,1.266c-5.778,0.697-11.527,1.665-17.317,2.218
		c-8.321,0.795-18.155-5.859-22.404-14.876c-3.541-7.515-2.109-15.887,3.67-22.202c3.262-3.565,7.215-5.026,12.016-4.883
		c10.966,0.327,21.94,0.747,32.906,0.631c14.684-0.155,28.346,8.229,32.406,20.493c2.596,7.842,1.418,15.356-3.492,21.773
		c-4.424,5.781-9.761,10.86-14.658,16.282c-1.545,1.711-2.969,3.531-4.449,5.302c0.327,0.344,0.653,0.688,0.98,1.031
		c4.304-1.946,8.547-4.044,12.927-5.8c5.242-2.101,7.446-0.802,8.184,4.83c1.56,11.91-2.754,21.552-11.89,29.077
		c-5.078,4.183-10.388,8.087-15.691,12.192c3.509,0.848,7.208,0.802,9.536,2.566c2.385,1.807,3.685,5.279,4.919,8.247
		c0.451,1.085-0.189,3.311-1.116,4.181c-20.85,19.577-41.81,39.037-63.277,59.011c-2.53-2.898-4.289-4.913-6.411-7.343
		c4.047-1.862,7.611-3.502,11.79-5.424c-2.861-2.646-5.229-5.215-7.968-7.294c-6.576-4.992-7.291-8.471-2.771-15.578
		c2.054,0.518,4.109,1.034,6.178,1.542c0.275,0.156,0.537,0.321,0.799,0.487C552.838,330.855,552.667,330.627,552.495,330.398z"/>
	<path style="fill:#CF0211;" d="M512.128,143.313c6.302-2.356,12.605-4.712,19.494-7.288c0.852,8.681,2.186,17.099-0.562,25.34
		c-2.444,7.331-8.005,11.735-15.351,13.726c-14.706,3.985-29.617,6.253-44.914,4.694c-8.183-0.834-15.068,1.551-20.394,8.039
		c-1.58,1.925-3.367,3.693-5.166,5.423c-7.648,7.355-16.803,8.958-25.379,2.757c-6.19-4.475-11.044-10.815-16.397-16.416
		c-1.104-1.156-1.78-2.721-3.962-4.155c-0.674,4.529-1.348,9.059-2.091,14.051c-4.219-1.64-8.065-3.676-12.159-4.571
		c-3.897-0.852-8.137-1.094-12.071-0.526c-3.549,0.513-5.491,0.187-6.826-3.44c-3.151-8.56-6.825-16.929-9.851-25.529
		c-0.576-1.636,0.254-4.521,1.48-5.902c4.435-4.993,10.485-7.559,16.653-4.756c17.038,7.74,34.207,6.872,51.738,2.604
		c5.322-1.295,10.781-2.078,16.21-2.871c7.179-1.049,12.657-4.556,16.813-10.483c7.643-10.899,15.525-21.631,23.121-32.562
		c3.027-4.356,6.758-7.171,12.061-7.993c6.734-1.045,10.836-5.937,15.316-10.46c3.567-3.601,7.375-7.385,11.817-9.602
		c7.352-3.67,14.379,0.199,15.744,8.236c2.241,13.2,0.511,26.267-3.144,38.973c-0.92,3.198-3.989,6.082-6.682,8.401
		c-5.235,4.51-10.903,8.517-16.392,12.732C511.534,142.261,511.831,142.787,512.128,143.313z"/>
	<path style="fill:#CF0211;" d="M709.399,187.136c-11.971-2.387-11.971-2.387-28.971,4.057c-0.497-4.847-0.983-9.591-1.452-14.176
		c-6.244,6.384-11.627,12.682-17.842,18.009c-5.812,4.982-13.103,7.231-20.478,3.804c-4.072-1.892-8.085-4.935-10.822-8.468
		c-6.26-8.082-13.81-11.205-24.103-11.232c-12.22-0.032-24.619-1.185-36.611-3.534c-22.204-4.35-26.871-22.622-20.191-41.295
		c6.393,2.617,12.792,5.236,19.19,7.856c0.281-0.52,0.561-1.039,0.842-1.559c-2.373-1.913-4.531-4.21-7.154-5.674
		c-13.812-7.707-20.003-19.133-18.451-35.029c0.562-5.752-0.488-11.643-0.332-17.458c0.291-10.806,9.129-15.705,18.432-10.099
		c3.191,1.923,6.044,4.721,8.407,7.641c5.38,6.648,11.344,11.966,20.169,13.646c2.237,0.426,4.536,2.776,5.965,4.827
		c7.797,11.193,15.514,22.451,22.888,33.925c4.524,7.041,10.618,11.317,18.715,12.873c12.087,2.322,24.175,4.647,36.287,6.835
		c7.19,1.299,14.21,0.587,21.064-2.138c5.885-2.339,11.855-4.528,18.404-2.78c8.023,2.141,10.116,5.561,7.197,13.133
		C717.048,169.397,713.088,178.317,709.399,187.136z"/>
	<path style="fill:#CF0211;" d="M521.97,332.89c1.896-0.572,3.791-1.143,5.632-1.699c4.67,6.338,3.895,10.762-2.266,15.2
		c-3.21,2.312-6.167,4.974-9.754,7.898c-18.905-17.528-37.915-35.154-56.654-52.529c2.145-7.774,4.634-9.545,13.275-10.066
		c0.273,0.149,0.545,0.299,0.817,0.449c0.019-0.413,0.037-0.827,0.056-1.24c-4.347-3.61-8.659-7.264-13.049-10.821
		c-9.967-8.074-14.679-18.251-12.603-31.171c0.799-4.971,3.015-6.366,7.622-4.447c4.365,1.819,8.572,4.017,12.849,6.048
		c0.314-0.306,0.629-0.613,0.943-0.919c-0.637-1.119-1.096-2.401-1.943-3.328c-3.814-4.176-7.829-8.169-11.603-12.379
		c-9.345-10.425-11.269-20.844-5.873-30.996c5.904-11.108,18.717-17.436,31.293-16.476c9.572,0.731,19.256,0.803,28.843,0.283
		c7.978-0.433,14.597,0.929,18.744,8.326c4.343,7.747,3.418,16.376-2.265,23.256c-6.965,8.433-15.475,12.064-26.515,9.414
		c-6.609-1.586-13.41-2.387-20.14-3.449c-1.032-0.163-2.142,0.173-3.7,1.338c2.222,1.506,4.312,3.273,6.688,4.472
		c10.017,5.052,20.968,6.12,31.909,7.187c2.143,0.209,4.292,0.535,6.386,1.026c7.892,1.85,10.577,6.12,9.544,14.185
		c-1.327,10.365-2.43,20.76-3.52,31.154c-0.482,4.594,1.357,8.33,4.492,11.688c5.767,6.177,6.271,10.14,2.087,17.485
		c-3.771,6.62-7.882,13.046-11.843,19.558c-0.194,0.252-0.387,0.505-0.581,0.757C521.218,333.027,521.594,332.959,521.97,332.89z"/>
	<path style="fill:#060606;" d="M692.887,459.338c7.068-9.73,14.75-17.741,25.376-22.646c16.203-7.48,35.536-4.319,45.104,8.207
		c3.702,4.846,5.787,10.928,8.51,16.255c3.264-4.242,6.601-9.367,10.712-13.769c11.459-12.27,25.812-16.562,42.185-13.653
		c9.285,1.649,16.353,7.018,19.709,15.863c2.626,6.921,5.408,14.298,5.594,21.538c0.668,25.959,0.262,51.946,0.262,78.102
		c-3.394,0-6.841,0-10.632,0c-0.076-1.451-0.216-2.891-0.217-4.331c-0.014-20.829,0.13-41.659-0.1-62.486
		c-0.064-5.782-0.741-11.658-1.975-17.307c-3.943-18.045-17.584-25.742-35.288-20.294c-16.44,5.059-29.782,23.102-29.782,40.278
		c0,19.662,0,39.325,0,58.987c0,1.63,0,3.261,0,5.099c-3.854,0-7.298,0-11.383,0c0-1.744,0.009-3.508-0.001-5.273
		c-0.141-22.984-0.219-45.968-0.497-68.95c-0.042-3.448-0.766-6.95-1.613-10.317c-4.655-18.508-18.498-25.781-36.514-19.313
		c-16.244,5.832-28.659,23.437-28.659,40.64c0,20.985,0,41.97,0,63.2c-3.666,0-7.099,0-10.866,0c0-37.768,0-75.675,0-113.939
		c3.066,0,6.286,0,10.077,0C692.887,443.228,692.887,451.283,692.887,459.338z"/>
	<path style="fill:#080808;" d="M0,393.422c3.576,0,7.198,0,11.167,0c0,23.528,0,46.944,0,70.661c32.766,0,65.19,0,98.085,0
		c0-23.359,0-46.928,0-70.672c4.08,0,7.688,0,11.536,0c0,51.944,0,103.689,0,155.72c-3.654,0-7.221,0-11.218,0
		c0-24.732,0-49.489,0-74.388c-32.877,0-65.332,0-98.222,0c0,12.455,0,24.763,0,37.07c0,12.31,0,24.62,0,37.266
		c-3.803,0-7.388,0-11.348,0C0,497.385,0,445.51,0,393.422z"/>
	<path style="fill:#060606;" d="M649.698,410.43c-1.954,2.996-3.759,5.763-5.792,8.878c-9.286-9.784-20.654-15.051-33.834-16.394
		c-11.691-1.191-23.284-0.879-34.377,3.523c-14.769,5.86-22.305,22.55-16.996,37.469c2.669,7.5,8.587,12.014,15.702,14.258
		c11.221,3.539,22.783,5.979,34.103,9.225c9.551,2.739,19.273,5.238,28.363,9.14c13.718,5.889,21.071,16.682,21.185,32.036
		c0.116,15.593-6.368,27.327-20.145,34.642c-14.494,7.695-30.213,8.308-46.154,7.205c-18.538-1.283-39.432-10.559-51.556-23.106
		c0.901-1.439,1.839-2.961,2.802-4.467c0.893-1.397,1.812-2.778,2.358-3.613c7.874,4.929,15.247,10.684,23.517,14.49
		c18.18,8.367,37.316,9.338,56.473,3.625c14.97-4.464,21.493-14.687,20.268-30.128c-0.724-9.121-5.542-16.164-13.549-19.527
		c-10.943-4.597-22.493-7.806-33.892-11.247c-8.577-2.589-17.445-4.239-25.973-6.966c-14.191-4.537-25.096-12.622-26.491-28.881
		c-1.475-17.186,4.482-31.136,19.587-40.219C586.134,387.846,627.679,387.484,649.698,410.43z"/>
	<path style="fill:#070707;" d="M262.188,496.526c-34.047,0-67.026,0-99.973,0c-2.888,13.962,12.007,36.044,28.511,43.001
		c18.037,7.603,42.955,0.755,53.264-18.793c3.053,0.82,6.192,1.663,9.835,2.641c-5.647,12.935-15.491,20.574-27.95,24.929
		c-39.035,13.645-77.704-15.792-76.336-57.932c0.896-27.592,18.734-50.624,43.411-56.052c31.201-6.863,61.133,12.505,67.425,43.886
		C261.539,484.013,261.578,490.047,262.188,496.526z M250.568,487.333c-0.146-26.029-22.767-46.865-48.81-44.897
		c-24.38,1.842-40.91,25.072-39.863,44.897C191.45,487.333,221.009,487.333,250.568,487.333z"/>
	<path style="fill:#070707;" d="M375.861,548.845c-10.692,3.062-13.514-0.101-15.927-17.226
		c-9.361,11.07-21.298,17.106-35.151,19.272c-12.889,2.015-25.223,0.861-35.936-7.737c-18.971-15.226-16.61-42.442,4.73-54.027
		c13.487-7.322,28.003-7.977,42.736-6.14c7.531,0.939,14.941,2.855,22.409,4.33c3.265-16.096-2.238-32.421-13.767-39.867
		c-10.233-6.609-21.479-7.066-32.607-3.401c-8.273,2.725-16.054,6.947-24.585,10.738c-0.947-1.669-2.297-4.049-3.867-6.816
		c18.386-12.505,37.747-19.417,59.753-12.352c16.916,5.431,26.716,20.808,26.832,40.862c0.109,18.663,0.042,37.328,0.005,55.992
		c-0.006,2.969,0.923,4.856,3.322,7.101C375.731,541.375,375.276,545.718,375.861,548.845z M359.311,507.398
		c0-2.832,0.205-5.686-0.097-8.485c-0.128-1.189-1.089-2.967-2.061-3.285c-18.076-5.917-36.349-8.489-54.619-1.095
		c-8.842,3.578-15.124,9.787-15.481,20.074c-0.376,10.816,4.283,19.113,13.833,24.11c13.464,7.045,26.975,4.41,39.809-1.682
		C352.87,531.256,361.783,522.716,359.311,507.398z"/>
	<path style="fill:#070707;" d="M959.108,487.065c-1.007-7.864-0.994-16.148-3.264-23.751
		c-4.923-16.488-22.101-24.715-40.822-20.293c-4.968,1.174-9.827,3.06-14.505,5.14c-4.516,2.008-8.732,4.689-13.431,7.267
		c-1.34-2.4-2.683-4.805-4.172-7.471c15.918-10.892,32.752-17.527,52.166-14.302c21.244,3.529,34.187,19.584,34.388,42.484
		c0.164,18.663,0.05,37.328,0.017,55.992c-0.005,3.105,0.668,5.22,3.474,7.527c1.903,1.564,1.312,6.161,1.824,9.318
		c-11.16,2.797-14.726-1.307-15.538-18.242c-1.834,2.173-2.907,3.757-4.277,5.018c-15.046,13.86-32.933,18.89-52.633,14.487
		c-22.179-4.956-34.016-29.377-23.824-47.576c6.63-11.838,17.921-16.924,30.614-19.241c15.207-2.776,30.158-0.882,44.9,3.292
		c0.954,0.27,1.9,0.578,2.865,0.802C957.165,487.58,957.494,487.407,959.108,487.065z M958.311,507.422
		c0-2.832,0.203-5.686-0.096-8.486c-0.127-1.193-1.072-2.984-2.039-3.3c-18.074-5.916-36.344-8.503-54.619-1.112
		c-8.845,3.577-15.134,9.774-15.502,20.058c-0.387,10.813,4.263,19.116,13.811,24.122c13.461,7.058,26.974,4.43,39.809-1.659
		C951.843,531.273,960.776,522.745,958.311,507.422z"/>
	<path style="fill:#CF0513;" d="M668.013,217.218c4.747,6.105,10.809,6.783,17.844,7.338c-6.496,8.397-12.641,16.341-19.06,24.638
		c-2.763-2.524-5.226-4.775-7.689-7.027c-0.438,0.329-0.877,0.657-1.315,0.986c1.931,2.965,3.862,5.931,6.266,9.623
		c-13.052,14.432-26.277,29.056-39.503,43.679c-0.647-0.419-1.294-0.839-1.942-1.258c2.876-5.485,4.926-11.654,8.794-16.315
		c8.728-10.517,9.889-21.734,5.554-34.082c-1.311-3.734-2.835-7.393-4.473-11.636c4.134,0.636,7.852,1.208,12.592,1.937
		c-4.945-9.111-13.357-16.844-7.155-28.288c0.836,0.213,1.786,0.326,2.627,0.69c10.021,4.331,19.064,2.366,27.664-3.885
		c9.721-7.065,20.636-10.565,32.731-10.061c0.827,0.034,1.658,0.078,2.474,0.2c0.289,0.043,0.541,0.334,1.697,1.099
		c-5.141,7.982-10.221,16.034-15.565,23.908c-0.533,0.785-2.7,0.775-4.056,0.632C679.934,218.81,674.389,218.031,668.013,217.218z"
		/>
	<path style="fill:#CF0413;" d="M439.2,206.002c6.266,12.075-2.315,19.608-7.58,28.463c4.332-0.525,8.078-0.98,12.583-1.526
		c-1.485,3.428-2.76,6.237-3.927,9.09c-5.595,13.681-5.055,26.441,5.081,38.162c2.588,2.992,3.987,7.013,5.932,10.561
		c-0.569,0.391-1.138,0.783-1.706,1.174c-12.302-13.782-24.605-27.564-36.703-41.118c2.448-3.664,4.436-6.639,6.424-9.614
		c-0.524-0.416-1.047-0.832-1.571-1.248c-2.417,2.276-4.834,4.552-7.612,7.169c-6.274-8.127-12.33-15.97-18.167-23.531
		c5.976-1.914,11.715-3.751,17.455-5.589c-0.142-0.596-0.285-1.192-0.427-1.788c-6.005,0.471-12.006,1.027-18.019,1.345
		c-1.269,0.067-3.203-0.329-3.781-1.204c-5.179-7.848-10.123-15.852-15.651-24.625c13.335-1.152,24.461,1.424,34.519,8.425
		c2.047,1.425,4.042,2.931,6.151,4.259C420.838,209.844,429.838,210.765,439.2,206.002z"/>
	<path style="fill:#060606;" d="M467.242,434.736c5.508,0,10.605,0,16.056,0c0-13.238,0-26.012,0-38.982c3.788,0,7.211,0,11.134,0
		c0,13.003,0,25.906,0,39.094c8.938,0,17.382,0,26.205,0c0,3.16,0,6.033,0,9.205c-8.554,0-16.995,0-25.9,0
		c-0.088,1.683-0.225,3.107-0.226,4.532c-0.013,25.98-0.018,51.959-0.005,77.939c0.004,8.373,4.71,13.836,13.127,13.489
		c6.266-0.258,12.456-2.37,19.289-3.782c0.692,1.789,1.747,4.518,3.002,7.762c-11.158,6.055-22.521,9.476-34.789,4.742
		c-7.852-3.03-11.859-9.225-11.845-17.874c0.046-26.812,0.017-53.625,0.017-80.437c0-1.827,0-3.653,0-6.031
		c-5.381,0-10.59,0-16.066,0C467.242,441.081,467.242,438.319,467.242,434.736z"/>
	<path style="fill:#060606;" d="M1082.309,444.224c-5.589,0-10.696,0-16.068,0c0-3.148,0-5.912,0-9.321c5.266,0,10.494,0,16.061,0
		c0-13.41,0-26.184,0-39.152c3.788,0,7.211,0,11.134,0c0,13.01,0,25.914,0,39.101c8.938,0,17.382,0,26.204,0
		c0,3.161,0,6.036,0,9.203c-8.56,0-17.002,0-25.903,0c-0.087,1.683-0.225,3.109-0.225,4.535c-0.013,25.98-0.018,51.959-0.005,77.939
		c0.004,8.369,4.685,13.379,13.143,13.606c3.271,0.088,6.654-0.404,9.826-1.24c2.977-0.785,5.742-2.375,9.014-3.789
		c1.127,2.918,2.182,5.648,3.413,8.833c-10.956,6.155-22.184,9.196-34.35,5.068c-7.841-2.66-12.22-9.53-12.231-18.151
		c-0.034-26.812-0.012-53.625-0.012-80.437C1082.309,448.592,1082.309,446.766,1082.309,444.224z"/>
	<path style="fill:#CF0514;" d="M712.05,66.864c-6.961-2.366-13.145-6.067-17.441-12.195c-8.251-11.77-19.841-16.977-33.739-17.141
		c-7.68-0.091-13.161-2.303-17.197-9.352c-5.202-9.086-14.181-10.192-23.921-9.872c-10.397,0.341-20.837-0.411-31.25-0.874
		c-4.122-0.183-8.221-0.873-12.998-1.407c7.508-5.95,15.508-10.359,24.305-12.276c9.172-1.999,18.69-2.469,28.081-3.342
		c1.634-0.152,3.74,0.588,5.027,1.647c4.08,3.359,8.312,6.699,11.679,10.72c5.023,5.998,10.918,9.999,18.572,11.73
		c13.874,3.136,26.925,8.407,36.263,19.52c5.519,6.568,9.421,14.496,14.05,21.812C713.005,66.175,712.527,66.52,712.05,66.864z"/>
	<path style="fill:#CF0615;" d="M504.09,18.298c-11.905,0.394-23.81,0.817-35.717,1.143c-1.467,0.04-2.952-0.42-4.423-0.686
		c-11.256-2.033-20.513,1.04-26.676,11.028c-2.945,4.773-6.84,6.833-12.353,6.809c-3.975-0.017-7.952,0.643-11.93,0.973
		c-9.625,0.8-17.375,4.869-23.428,12.551c-5.34,6.777-12.177,11.698-21.604,14.736c0.907-2.289,1.443-3.868,2.143-5.372
		c9.753-20.968,27.258-31.561,49.041-35.975c7.724-1.565,14.161-4.505,18.696-11.096c0.749-1.088,1.707-2.043,2.632-2.997
		c6.002-6.187,12.568-10.155,21.957-9.297c15.725,1.437,29.379,7.281,41.872,16.375C504.231,17.093,504.161,17.695,504.09,18.298z"
		/>
	<path style="fill:#050505;" d="M457.767,434.403c0,3.571,0,6.843,0,10.164c-4.543,0.926-9.158,1.44-13.493,2.828
		c-14.661,4.695-24.193,14.701-28.949,29.256c-0.6,1.836-0.625,3.914-0.629,5.88c-0.041,22.123-0.026,44.246-0.026,66.623
		c-3.701,0-7.131,0-10.876,0c0-37.803,0-75.699,0-113.936c3.26,0,6.643,0,10.407,0c0,8.547,0,16.966,0,26.907
		C424.557,444.782,437.539,433.94,457.767,434.403z"/>
	<path style="fill:#050505;" d="M1013.67,549.229c-3.915,0-7.336,0-10.971,0c0-38.077,0-75.972,0-114.109c3.403,0,6.672,0,10.545,0
		c0,8.571,0,17.059,0,26.998c10.345-17.371,23.262-28.092,43.436-27.744c0,3.604,0,6.99,0,10.669
		c-10.859,0.39-20.682,3.624-28.775,10.862c-9.002,8.05-14.638,17.594-14.358,30.403
		C1014.002,507.114,1013.67,527.938,1013.67,549.229z"/>
	<path style="fill:#D00918;" d="M440.412,1.602c-9.24,12.236-21.113,18.863-36.624,18.769
		C405.945,13.145,428.849,1.472,440.412,1.602z"/>
	<path style="fill:#D10D1B;" d="M679.3,21.431C664.347,21,651.952,15.833,643.356,2.282C657.36,5.671,669.185,11.935,679.3,21.431z"
		/>
	<path style="fill:#D52330;" d="M517.861,354.321c3.212,1.579,6.424,3.158,9.652,4.745
		C525.377,362.86,524.991,362.692,517.861,354.321z"/>
	<path style="fill:#FEFEFE;" d="M590.824,62.75c-0.549,0.145-1.098,0.29-1.647,0.435c0.18-0.465,0.361-0.93,0.541-1.395
		C590.088,62.11,590.456,62.43,590.824,62.75z"/>
	<path style="fill:#FEFEFE;" d="M552.495,330.398c0.171,0.229,0.343,0.457,0.514,0.686c-0.262-0.165-0.523-0.33-0.799-0.487
		C552.197,330.606,552.495,330.398,552.495,330.398z"/>
	<path style="fill:#FEFEFE;" d="M521.97,332.89c-0.376,0.068-0.752,0.137-1.128,0.205c0.194-0.252,0.387-0.505,0.581-0.757
		C521.613,332.514,521.796,332.698,521.97,332.89z"/>
	<path style="fill:#FEFEFE;" d="M473.076,290.904c-0.019,0.414-0.037,0.827-0.056,1.24c-0.272-0.15-0.544-0.3-0.817-0.449
		C472.494,291.431,472.785,291.168,473.076,290.904z"/>
	<path style="fill:#FDFDFD;" d="M250.568,487.333c-29.559,0-59.118,0-88.673,0c-1.047-19.825,15.483-43.055,39.863-44.897
		C227.801,440.467,250.422,461.303,250.568,487.333z"/>
	<path style="fill:#FCFCFC;" d="M359.311,507.398c2.472,15.318-6.441,23.858-18.615,29.637c-12.834,6.092-26.345,8.727-39.809,1.682
		c-9.55-4.997-14.209-13.294-13.833-24.11c0.357-10.287,6.639-16.496,15.481-20.074c18.27-7.395,36.543-4.822,54.619,1.095
		c0.972,0.318,1.933,2.096,2.061,3.285C359.516,501.712,359.311,504.566,359.311,507.398z"/>
	<path style="fill:#FCFCFC;" d="M958.311,507.422c2.465,15.323-6.468,23.851-18.637,29.623c-12.834,6.089-26.348,8.716-39.809,1.659
		c-9.548-5.006-14.198-13.308-13.811-24.122c0.368-10.284,6.658-16.481,15.502-20.058c18.275-7.391,36.545-4.804,54.619,1.112
		c0.967,0.316,1.911,2.107,2.039,3.3C958.514,501.737,958.311,504.591,958.311,507.422z"/>
</g>
</svg>
