<?xml version="1.0" encoding="utf-8"?>
<!-- Generator: Adobe Illustrator 19.1.0, SVG Export Plug-In . SVG Version: 6.00 Build 0)  -->
<!DOCTYPE svg PUBLIC "-//W3C//DTD SVG 1.1//EN" "http://www.w3.org/Graphics/SVG/1.1/DTD/svg11.dtd">
<svg version="1.1" id="Layer_1" xmlns="http://www.w3.org/2000/svg" xmlns:xlink="http://www.w3.org/1999/xlink" x="0px" y="0px"
	 viewBox="0 0 1200.008 1200.15" style="enable-background:new 0 0 1200.008 1200.15;" xml:space="preserve">
<g>
	<path style="fill:#F22613;" d="M1087.763,762.523c-34.35-28.566-66.716-57.276-92.578-92.529
		c-13.203-17.997-22.794-37.295-21.221-60.385c2.844-41.72,51.249-68.484,90.229-49.647c8.182,3.954,15.407,9.888,23.847,15.417
		c0.676-0.533,2.316-1.581,3.661-2.925c21.508-21.492,51.853-25.982,76.783-11.312c26.704,15.714,37.516,42.283,28.392,72.741
		c-2.982,9.954-7.553,19.887-13.422,28.441C1157.178,700.62,1122.777,731.266,1087.763,762.523z"/>
	<path style="fill:#F22613;" d="M357.315,576.508c15.564-18.676,35.01-26.723,58.504-22.789c40.52,6.784,62.553,42.837,49.84,82.33
		c-3.384,10.513-8.889,20.776-15.321,29.799c-26.124,36.651-59.254,66.66-93.34,96.661c-36.945-31.004-73.251-62.059-99.128-102.986
		c-6.061-9.586-11.08-20.71-13.154-31.768c-5.422-28.905,4.365-49.978,27.603-63.776c24.807-14.729,49.212-13.805,72.866,2.801
		C349.071,569.506,352.616,572.716,357.315,576.508z M369.34,604.061c-3.131,0-6.567-0.339-9.913,0.065
		c-9.462,1.141-15.795-0.624-20.555-10.875c-6.232-13.42-25.602-19.089-42.382-15.202c-15.35,3.556-26.749,15.971-28.677,31.122
		c-1.848,14.519,1.588,27.597,9.588,39.876c19.679,30.203,45.97,54.004,73.81,76.19c2.626,2.093,10.512,1.426,13.192-1.005
		c19.445-17.641,38.822-35.456,56.862-54.503c8.765-9.255,15.874-20.658,21.509-32.176c11.717-23.949,1.945-49.718-20.657-58.029
		C400.494,571.572,381.584,580.224,369.34,604.061z"/>
	<path style="fill:#F22613;" d="M600.141,576.197c26.538-25.055,54.37-30.217,80.351-15.386
		c30.663,17.505,40.578,50.596,25.021,84.975c-3.346,7.395-7.796,14.393-12.456,21.074c-18.16,26.037-70.013,78.659-93.474,95.1
		c-36.891-31.105-73.915-62.42-99.565-104.353c-6.199-10.134-10.366-22.309-12.343-34.071c-4.837-28.767,7.487-49.615,33.392-62.537
		c26.215-13.077,50.158-8.305,72.345,9.509c1.063,0.853,2.034,1.819,3.073,2.703C597.499,574.073,598.546,574.897,600.141,576.197z
		 M549.725,577.305c-24.315-0.048-41.835,17.914-38.955,42.145c1.238,10.417,5.252,21.304,10.783,30.264
		c18.703,30.298,45.302,53.452,72.736,75.514c2.532,2.036,9.336,2.359,11.712,0.445c29.545-23.809,58.333-48.644,77.114-82.334
		c4.572-8.201,6.504-18.681,6.902-28.228c0.777-18.617-11.396-33.065-28.938-37.098c-19.547-4.494-37.011,3.501-45.765,20.33
		c-1.332,2.562-4.92,4.895-7.833,5.472c-4.595,0.91-9.598,0.806-14.242,0.026c-2.723-0.457-6.377-2.478-7.405-4.781
		C578.766,583.232,566.044,577.418,549.725,577.305z"/>
	<path style="fill:#F22613;" d="M844.083,575.668c1.035-0.966,2.532-2.287,3.943-3.692c21.087-20.998,51.214-25.363,76.007-10.999
		c26.497,15.351,37.935,41.84,28.954,71.572c-3.668,12.143-9.703,24.142-17.067,34.495c-25.68,36.105-58.532,65.477-92.628,95.751
		c-15.154-13.477-30.395-26.411-44.926-40.099c-21.897-20.627-42.267-42.609-57.681-68.764
		c-8.624-14.632-12.445-30.43-10.544-47.049c4.672-40.843,52.537-65.436,90.53-46.599C828.793,564.31,835.96,570.26,844.083,575.668
		z M831.063,604.061c-9.622-22.251-27.533-31.432-48.899-25.748c-19.909,5.296-31.315,22.215-27.747,44.873
		c1.579,10.031,5.571,21.08,11.997,28.684c18.41,21.784,37.673,43.052,58.401,62.615c20.362,19.217,16.867,18.189,37.755,0.461
		c22.677-19.246,44.618-39.472,59.978-65.223c5.718-9.586,9.693-21.21,10.867-32.286c1.991-18.791-9.287-33.216-26.823-38.648
		c-16.767-5.193-37.71,0.219-44.321,14.19c-5.046,10.665-11.871,12.09-21.504,11.129
		C837.746,603.806,834.67,604.061,831.063,604.061z"/>
	<path style="fill:#F22613;" d="M113.109,761.907c-35.313-29.443-69.81-59.835-96.248-98.251
		C5.697,647.433-1.018,629.89,0.126,609.996c2.429-42.247,51.597-69.176,90.926-49.597c8.106,4.036,15.27,9.966,23.597,15.508
		c12.425-14.698,28.258-23.362,48.54-23.007c42.706,0.746,71.399,37.929,60.342,79.176c-2.265,8.451-5.879,16.792-10.265,24.378
		C197.865,683.1,140.128,743.491,113.109,761.907z M101.394,604.061c-10.254-22.859-29.468-32.076-50.91-25.06
		c-20.708,6.776-31.072,25.904-25.118,49.267c2.297,9.012,6.346,18.563,12.359,25.459c18.345,21.037,37.128,41.868,57.458,60.949
		c19.941,18.716,16.709,18,37.054,0.7c22.7-19.303,44.798-39.45,60.178-65.248c5.887-9.875,10.009-21.868,11.143-33.272
		c1.867-18.781-9.843-33.216-27.42-38.302c-16.963-4.909-37.818,0.907-44.112,15.047c-4.589,10.31-11.028,11.104-19.848,10.498
		C108.794,603.866,105.379,604.061,101.394,604.061z"/>
</g>
</svg>
