<?xml version="1.0" encoding="utf-8"?>
<!-- Generator: Adobe Illustrator 19.1.0, SVG Export Plug-In . SVG Version: 6.00 Build 0)  -->
<!DOCTYPE svg PUBLIC "-//W3C//DTD SVG 1.1//EN" "http://www.w3.org/Graphics/SVG/1.1/DTD/svg11.dtd">
<svg version="1.1" id="Layer_1" xmlns="http://www.w3.org/2000/svg" xmlns:xlink="http://www.w3.org/1999/xlink" x="0px" y="0px"
	 viewBox="0 0 525.404 536.771" style="enable-background:new 0 0 525.404 536.771;" xml:space="preserve">
<g>
	<path style="fill:#F22613;" d="M362.722,360.801c0,2.831,0,4.825,0,6.819c0,41.826-0.188,83.654,0.104,125.478
		c0.099,14.196-5.929,24.631-17.065,32.554c-10.356,7.368-22.159,10.845-34.73,10.931c-32.493,0.223-64.99,0.281-97.482-0.016
		c-14.717-0.135-28.23-4.576-39.431-14.585c-8.237-7.361-12.503-16.464-12.463-27.756c0.147-42.326,0.059-84.652,0.059-126.979
		c0-1.964,0-3.929,0-6.447c-2.39,0-4.336,0-6.281,0c-40.327,0-80.653,0.006-120.98-0.003c-15.598-0.003-26.616-6.993-31.986-20.842
		c-5.357-13.816-1.764-25.59,8.599-35.914c41.201-41.045,82.261-82.231,123.413-123.326c12.968-12.95,31.278-14.038,44.069-2.774
		c13.91,12.251,14.53,32.626,1.126,46.143c-22.763,22.954-45.681,45.756-68.562,68.593c-1.41,1.407-3.072,2.562-4.617,3.834
		c0.182,0.385,0.363,0.769,0.545,1.154c35.442,0,70.883,0,106.609,0c-19.546-18.306-28.597-40.755-24.866-67.634
		c2.551-18.377,11.16-33.707,25.22-45.794c29.28-25.171,72.756-23.615,100.62,2.793c25.839,24.488,35.596,75.194-2.808,110.953
		c35.561,0,70.932,0,107.512,0c-1.882-1.976-3.036-3.241-4.246-4.451c-23.208-23.217-46.533-46.318-69.599-69.675
		c-17.285-17.503-9.65-46.367,13.843-52.537c11.93-3.133,22.359,0.143,31.084,8.872c26.27,26.283,52.552,52.554,78.829,78.83
		c15.201,15.2,30.414,30.387,45.596,45.606c10.423,10.449,13.23,23.044,8.011,35.609c-5.571,13.412-16.356,20.549-31.209,20.555
		c-40.827,0.018-81.653,0.007-122.48,0.007C367.194,360.801,365.232,360.801,362.722,360.801z M305.623,203.83
		c-0.663,8.606-2.131,15.882-1.462,22.954c0.481,5.087,3.39,10.157,6.101,14.707c0.977,1.64,4.887,2.85,6.817,2.237
		c1.957-0.622,4.387-3.739,4.384-5.761c-0.007-4.98-0.16-10.532-2.326-14.804C315.832,216.649,310.781,211.019,305.623,203.83z
		 M215.245,232.566c-3.569,6.192-7.13,11.055-9.225,16.484c-1.319,3.417-1.219,7.866-0.356,11.521
		c1.129,4.785,5.891,5.725,8.445,1.616c2.218-3.569,3.675-8.18,3.759-12.365C217.974,244.536,216.347,239.215,215.245,232.566z"/>
	<path style="fill:#F22613;" d="M256.094,140.814c0-24.918,0-49.836,0-74.993c-14.122,2.516-27.363,4.876-42.291,7.536
		c4.47-25.087,8.771-49.222,13.072-73.357c0.736,0.089,1.471,0.178,2.207,0.267c-0.638,19.687-1.275,39.374-1.92,59.276
		c13.347-2.593,26.679-5.184,40.734-7.915c-1.628,30.322-4.706,59.959-10.011,89.348
		C257.288,140.922,256.691,140.868,256.094,140.814z"/>
	<path style="fill:#F22613;" d="M425.063,79.487c22.811-7.304,44.712-14.317,66.613-21.33c0.257,0.642,0.515,1.284,0.772,1.927
		c-16.122,8.124-32.243,16.247-48.632,24.506c8.811,10.322,17.646,20.672,27.556,32.281c-26.404,10.544-51.985,20.758-77.565,30.973
		c-0.383-0.808-0.766-1.617-1.148-2.425c19.605-11.076,39.211-22.151,59.159-33.421C443.241,101.577,434.539,91.003,425.063,79.487z
		"/>
	<path style="fill:#F22613;" d="M215.423,159.267c-10.18-3.608-20.335-7.045-30.368-10.809
		c-10.036-3.766-16.626-10.824-18.82-21.498c-2.152-10.469,5.172-18.094,15.801-16.47c8.581,1.311,15.189,5.879,19.473,13.328
		c2.467,4.29,4.286,8.988,6.064,13.629C210.338,144.659,212.818,151.981,215.423,159.267z"/>
	<path style="fill:#F22613;" d="M133.734,145.802c-8.799-16.858-17.599-33.716-26.422-50.619
		c-10.48,8.591-20.992,17.207-32.694,26.8C69.471,101.594,64.61,82.337,59.75,63.079c0.709-0.235,1.419-0.471,2.128-0.706
		c6.073,13.39,12.146,26.781,18.352,40.463c10.389-8.834,20.719-17.616,32.385-27.536c8.067,23.899,15.768,46.713,23.469,69.527
		C135.3,145.152,134.517,145.477,133.734,145.802z"/>
	<path style="fill:#F22613;" d="M316.731,161.46c4.797-10.275,9.383-20.19,14.051-30.066c4.48-9.479,11.144-16.937,20.871-21.17
		c5.236-2.278,11.062-4.361,15.768,0.627c4.429,4.695,2.538,10.299,0.31,15.429c-4.005,9.224-10.87,15.844-19.774,20.26
		C337.715,151.621,327.331,156.412,316.731,161.46z"/>
	<path style="fill:#F22613;" d="M296.533,159.329c-0.946-8.98-1.897-16.707-2.539-24.46c-0.627-7.579,1.12-14.717,6.303-20.364
		c1.88-2.049,5.594-4.064,7.936-3.568c2.265,0.48,4.701,3.933,5.552,6.568c2.207,6.832,0.653,13.578-2.962,19.614
		C306.491,144.354,301.714,151.322,296.533,159.329z"/>
</g>
</svg>
