<?xml version="1.0" encoding="utf-8"?>
<!-- Generator: Adobe Illustrator 19.1.0, SVG Export Plug-In . SVG Version: 6.00 Build 0)  -->
<!DOCTYPE svg PUBLIC "-//W3C//DTD SVG 1.1//EN" "http://www.w3.org/Graphics/SVG/1.1/DTD/svg11.dtd">
<svg version="1.1" id="Layer_1" xmlns="http://www.w3.org/2000/svg" xmlns:xlink="http://www.w3.org/1999/xlink" x="0px" y="0px"
	 viewBox="0 0 569.983 452.23" style="enable-background:new 0 0 569.983 452.23;" xml:space="preserve">
<g>
	<path style="fill:#F22613;" d="M413.959,123.817c0.203-15.205-4.353-27.855-14.273-38.314c-3.502-3.692-7.896-6.594-12.107-9.535
		c-2.291-1.6-3.276-2.81-1.643-5.58c2.325-3.944,4.201-8.153,6.355-12.421c14.471,7.568,24.917,18.125,32.133,32.086
		c29.123-37.872,71.874-38.898,100.146-24.396c-14.754,29.513-51.102,54.155-94.55,40.932c0.456,5.369,0.898,10.575,1.365,16.082
		c7.838-1.335,15.57-3.087,23.399-3.872c8.988-0.901,17.899-2.47,27.065,0.928c7.233,2.682,15.428,2.658,22.854,4.947
		c37.902,11.683,65.3,48.687,65.281,88.357c-0.022,46.059-13.908,87.418-43.208,123.268c-3.578,4.378-7.553,8.439-11.438,12.558
		c-20.332,21.558-45.258,27.269-73.093,19.529c-12.4-3.448-23.916-4.834-36.415-0.686c-10.082,3.346-20.824,4.386-31.605,2.969
		c-16.361-2.15-30.215-9.578-41.507-21.173c-38.549-39.581-58.518-86.862-56.754-142.463c1.311-41.299,31.417-76.779,71.819-85.901
		c20.116-4.542,40.04-2.841,59.919,1.489C409.461,123.003,411.239,123.3,413.959,123.817z M367.174,154.891
		c-30.429,0.732-57.463,28.746-56.194,58.23c0.254,5.891,3.602,9.906,8.348,10.007c5.303,0.113,9.287-4.014,9.615-9.961
		c1.086-19.664,13.898-34.928,33.11-39.256c3.064-0.69,6.263-0.769,9.386-1.219c5.674-0.818,8.412-4.468,7.691-10.147
		C378.438,157.087,374.724,154.71,367.174,154.891z"/>
	<path style="fill:#F22613;" d="M104.101,122.248c-25.476-0.002-50.953,0.071-76.429-0.031C13.05,122.159,1.856,112.287,0.243,98.37
		c-1.825-15.748,6.742-28.345,21.662-31.72c1.928-0.436,3.956-0.603,5.939-0.605c50.953-0.031,101.906-0.079,152.859,0.012
		c14.614,0.026,25.367,10.201,26.884,24.915c1.539,14.93-7.094,27.577-21.118,30.67c-2.566,0.566-5.287,0.579-7.937,0.584
		C153.722,122.267,128.911,122.251,104.101,122.248z"/>
	<path style="fill:#F22613;" d="M104.149,329.984c25.14,0.001,50.281-0.057,75.421,0.024c14.563,0.047,25.812,9.965,27.387,23.877
		c1.766,15.594-6.615,28.202-21.131,31.651c-1.921,0.456-3.949,0.649-5.928,0.65c-50.947,0.034-101.893,0.08-152.84-0.01
		c-14.141-0.025-25.352-10.229-26.838-23.923c-1.686-15.539,6.463-28.142,20.594-31.528c2.708-0.649,5.604-0.707,8.414-0.712
		C54.202,329.961,79.176,329.982,104.149,329.984z"/>
	<path style="fill:#F22613;" d="M130.207,225.927c0,21.643,0.027,43.285-0.009,64.928c-0.026,15.982-9.443,25.25-25.556,25.256
		c-17.615,0.007-27.644-9.18-27.657-25.519c-0.036-43.618-0.066-87.237,0.029-130.855c0.029-13.063,8.947-22.623,21.963-24.103
		c15.664-1.782,27.455,5.252,30.58,18.439c0.604,2.55,0.618,5.279,0.624,7.925C130.227,183.308,130.207,204.617,130.207,225.927z"/>
	<path style="fill:#F22613;" d="M102.993,452.207c-13.651,0-27.303,0.063-40.954-0.017c-16.411-0.096-27.83-11.704-27.819-28.132
		c0.011-16.422,11.434-28.017,27.878-28.061c27.469-0.073,54.938-0.077,82.407,0c16.545,0.046,27.702,11.477,27.692,28.119
		c-0.01,16.618-11.184,27.981-27.751,28.075C130.629,452.269,116.811,452.207,102.993,452.207z"/>
	<path style="fill:#F22613;" d="M103.959,0.026c13.647,0,27.295-0.069,40.942,0.018c16.531,0.105,27.981,11.558,28.055,27.907
		c0.076,16.605-11.403,28.233-28.181,28.284c-27.294,0.083-54.59,0.088-81.884-0.002c-16.873-0.055-27.977-11.474-27.91-28.408
		c0.066-16.492,11.31-27.691,28.036-27.784C76.663-0.035,90.311,0.026,103.959,0.026z"/>
</g>
</svg>
