<?xml version="1.0" encoding="utf-8"?>
<!-- Generator: Adobe Illustrator 19.1.0, SVG Export Plug-In . SVG Version: 6.00 Build 0)  -->
<!DOCTYPE svg PUBLIC "-//W3C//DTD SVG 1.1//EN" "http://www.w3.org/Graphics/SVG/1.1/DTD/svg11.dtd">
<svg version="1.1" id="Layer_1" xmlns="http://www.w3.org/2000/svg" xmlns:xlink="http://www.w3.org/1999/xlink" x="0px" y="0px"
	 viewBox="0 0 405.289 450.567" style="enable-background:new 0 0 405.289 450.567;" xml:space="preserve">
<g>
	<path style="fill:#CF000F;" d="M208.024,123.838c5.005-1.027,9.48-1.447,13.598-2.889c10.51-3.682,21.076-7.337,31.236-11.862
		c34.504-15.367,66.912-10.209,96.711,11.042c23.761,16.945,38.572,41.098,47.884,68.523c9.621,28.338,9.687,57.269,3.967,86.324
		c-9.844,50.003-30.587,95.133-61.528,135.574c-3.429,4.481-7.535,8.448-11.365,12.618c-30.12,32.791-71.03,31.852-101.482,19.409
		c-3.54-1.446-7.063-2.97-10.463-4.713c-10.861-5.568-21.673-5.496-32.642-0.283c-11.624,5.524-23.607,9.821-36.573,11.136
		c-25.475,2.583-48.654-2.863-67.345-20.93c-9.865-9.536-19.33-19.983-26.757-31.455C28.734,358.437,10.668,317.65,3.035,272.81
		c-9.26-54.394,2.128-102.961,41.677-143.129c22.357-22.708,49.803-32.813,81.463-30.311c8.101,0.64,16.18,3.55,23.914,6.384
		c12.636,4.632,24.966,10.096,37.464,15.111c2.097,0.841,4.392,1.187,6.317,1.689c4.981-11.91,9.767-23.354,14.768-35.314
		c-25.343,1.372-46.486-8.644-64.813-25.27c-18.179-16.492-29.994-36.695-34.361-61.946c24.655-0.404,47.523,4.235,67.986,17.878
		c20.912,13.943,32.932,33.794,37.655,59.567c1.467-2.31,2.396-3.753,3.306-5.207c9.386-15.007,19.639-29.362,32.319-41.8
		c3.185-3.124,6.679-6.111,10.5-8.369c7.386-4.364,13.442-2.086,16.118,5.984c1.176,3.548,1.858,7.491,1.676,11.201
		c-0.245,4.993-3.76,7.871-8.401,9.456c-33.758,11.525-52.945,35.956-61.598,69.68C208.664,119.824,208.49,121.282,208.024,123.838z
		 M203.943,234.698c-8.437-14.545-20.956-22.531-37.624-24.214c-23.29-2.351-43.664,14.445-45.371,37.757
		c-1.186,16.201,5.978,29.42,16.285,41.078c18.694,21.146,43.345,35.019,64.484,52.935c7.167-5.267,13.861-10.208,20.577-15.118
		c6.719-4.912,13.866-9.328,20.1-14.79c10.733-9.402,21.802-18.671,31.062-29.432c9.712-11.286,14.228-25.409,11.415-40.5
		c-3.313-17.778-17.799-29.963-36.325-31.924C231.285,208.663,211.161,219.465,203.943,234.698z"/>
</g>
</svg>
