<?xml version="1.0" encoding="utf-8"?>
<!-- Generator: Adobe Illustrator 19.1.0, SVG Export Plug-In . SVG Version: 6.00 Build 0)  -->
<!DOCTYPE svg PUBLIC "-//W3C//DTD SVG 1.1//EN" "http://www.w3.org/Graphics/SVG/1.1/DTD/svg11.dtd">
<svg version="1.1" id="Layer_1" xmlns="http://www.w3.org/2000/svg" xmlns:xlink="http://www.w3.org/1999/xlink" x="0px" y="0px"
	 viewBox="0 0 1199.984 664.425" style="enable-background:new 0 0 1199.984 664.425;" xml:space="preserve">
<g>
	<path style="fill:#CF000F;" d="M0,0.126c2.332-0.035,4.663-0.1,6.995-0.1C377.11,0.015,747.224,0.008,1117.339,0
		c15.88,0,31.122,2.98,45.443,9.98c20.352,9.948,32.238,26.302,35.881,48.552c2.344,14.321,1.558,28.618-2.27,42.603
		c-7.868,28.742-31.146,47.286-61.116,48.952c-4.321,0.24-8.661,0.194-12.993,0.194c-95.986,0.01-191.973,0.022-287.959-0.057
		c-3.257-0.003-6.517-0.931-9.768-1.471c-15.246-2.529-30.434-5.493-45.745-7.529c-38.62-5.135-77.294-9.858-115.948-14.74
		c-32.542-4.11-65.163-7.695-97.59-12.571c-13.057-1.963-25.733-6.6-38.509-10.275c-77.531-22.303-155.039-44.686-232.559-67.025
		c-8.018-2.31-14.583-0.481-18.918,5.126c-4.046,5.233-4.544,12.478-1.197,18.333c2.55,4.461,6.541,6.779,11.425,8.182
		c55.318,15.888,110.609,31.867,165.906,47.827c35.639,10.286,71.308,20.471,106.905,30.904c33.165,9.72,55.61,41.249,53.358,74.515
		c-2.426,35.834-28.348,64.223-63.584,69.32c-11.533,1.668-22.887,0.202-34.076-3.074c-38.473-11.261-77.032-22.236-115.462-33.64
		c-37.128-11.018-73.524-7.828-109.223,5.563c-26.156,9.812-51.819,20.931-77.899,30.952
		c-34.201,13.142-69.72,19.803-106.395,20.182c-10.66,0.11-17.502,6.684-17.342,16.414c0.157,9.534,7.431,16.189,17.769,16.237
		c47.037,0.219,91.638-10.948,134.885-28.653c21.7-8.884,43.334-17.992,65.361-25.997c29.03-10.55,58.553-11.612,88.184-1.799
		c7.09,2.348,14.348,4.19,22.195,6.456c-37.129,19.858-59.153,49.614-61.191,91.716c-2.027,41.89,16.7,73.642,51.336,97.004
		c-33.213,25.617-48.18,58.987-39.418,100.299c8.693,40.988,34.574,66.741,75.54,77.098c-1.417,0-2.833,0-4.25,0
		c-114.484,0-228.968-0.013-343.452,0.015c-15.665,0.004-30.906-1.887-45.046-9.211c-23.756-12.306-36.869-32.917-44.591-57.599
		C3.002,586.316,1.657,579.637,0,573.055C0,382.079,0,191.102,0,0.126z"/>
	<path style="fill:#CF000F;" d="M1046.392,214.37c10.276,17.451,20.348,34.106,29.987,51.008
		c31.176,54.668,60.447,110.29,82.921,169.219c8.903,23.345,16.476,47.091,20.043,71.945
		c7.524,52.428-16.924,121.144-78.463,147.047c-46.214,19.452-114.186,15.156-154.616-33.042
		c-30.075-35.854-40.205-77.445-31.819-123.323c6.443-35.245,19.754-68.299,34.185-100.881
		c27.339-61.724,60.024-120.61,95.18-178.167C1044.407,217.199,1045.093,216.278,1046.392,214.37z M1064.685,373.279
		c-12.531,0-24.567,0-37.11,0c0,18.055,0,35.793,0,54.115c-2.289,0-4.074,0-5.859,0c-14.985,0-29.971-0.067-44.954,0.104
		c-1.522,0.017-4.324,1.437-4.345,2.261c-0.289,11.418-0.195,22.845-0.195,34.853c18.696,0,36.762,0,55.544,0
		c0,18.258,0,35.938,0,53.678c12.644,0,24.56,0,37.128,0c0-18.013,0-35.709,0-53.806c18.592,0,36.532,0,54.683,0
		c0-12.47,0-24.52,0-37.166c-18.319,0-36.365,0-54.892,0C1064.685,408.993,1064.685,391.257,1064.685,373.279z M1119.596,553.683
		c-49.219,0-98.061,0-147.123,0c0,12.287,0,24.193,0,36.414c49.148,0,98.003,0,147.123,0
		C1119.596,577.956,1119.596,566.023,1119.596,553.683z"/>
	<path style="fill:#CF000F;" d="M465.43,316.653c13.399,1.662,30.576,3.769,47.747,5.929c35.668,4.487,71.336,8.971,106.996,13.516
		c33.346,4.25,66.815,7.76,99.988,13.095c35.137,5.65,60.457,38.073,59.622,73.901c-0.833,35.762-27.677,66.597-63.155,70.846
		c-11.364,1.361-23.224-0.072-34.719-1.412c-35.871-4.181-71.675-8.93-107.505-13.455c-38.472-4.859-76.918-9.944-115.431-14.464
		c-16.781-1.969-32.151-6.685-45.289-17.682c-23.781-19.905-32.551-53.15-21.642-82.473
		C402.734,335.714,431.12,316.187,465.43,316.653z"/>
	<path style="fill:#CF000F;" d="M605.222,301.088c46.247-37.991,49.997-103.534,19.084-146.198
		c7.814,0.939,14.935,1.76,22.047,2.655c38.47,4.844,76.941,9.685,115.406,14.571c14.855,1.887,29.802,3.299,44.521,5.957
		c35.659,6.44,60.482,37.92,59.683,74.822c-0.762,35.178-27.766,65.792-63.303,70.101c-11.196,1.357-22.894-0.079-34.224-1.411
		c-38.838-4.565-77.616-9.645-116.415-14.541C636.555,305.093,621.092,303.109,605.222,301.088z"/>
	<path style="fill:#CF000F;" d="M665.42,579.827c0.41,37.491-32.944,67.874-70.334,63.41
		c-48.105-5.744-96.173-11.826-144.199-18.202c-30.749-4.082-54.249-32.406-53.756-63.752c0.499-31.702,24.983-59.6,56.029-62.05
		c12.109-0.956,24.54,0.907,36.721,2.354c35.875,4.262,71.713,8.843,107.53,13.565c9.033,1.191,18.315,2.302,26.826,5.31
		C649.022,529.219,665.128,553.113,665.42,579.827z"/>
</g>
</svg>
