<?xml version="1.0" encoding="utf-8"?>
<!-- Generator: Adobe Illustrator 19.1.0, SVG Export Plug-In . SVG Version: 6.00 Build 0)  -->
<!DOCTYPE svg PUBLIC "-//W3C//DTD SVG 1.1//EN" "http://www.w3.org/Graphics/SVG/1.1/DTD/svg11.dtd">
<svg version="1.1" id="Layer_1" xmlns="http://www.w3.org/2000/svg" xmlns:xlink="http://www.w3.org/1999/xlink" x="0px" y="0px"
	 viewBox="0 0 1191.561 1144.782" style="enable-background:new 0 0 1191.561 1144.782;" xml:space="preserve">
<g>
	<path style="fill:#CF000F;" d="M0,542.844c1.593-4.871,2.717-9.962,4.871-14.572c5.715-12.229,15.883-19.971,27.835-25.352
		c22.03-9.92,45.104-13.009,69.189-10.815c29.513,2.688,59.102,4.546,88.656,6.778c15.773,1.191,31.54,2.481,47.321,3.56
		c2.766,0.189,4.007,1.162,4.776,3.843c9.631,33.563,19.38,67.092,29.085,100.634c0.132,0.456,0.088,0.964,0.174,2.07
		c-77.625,27.344-155.337,54.719-233.565,82.275c-1.301-4.423-2.522-8.513-3.707-12.613c-10.706-37.059-21.42-74.116-32.087-111.186
		c-1.006-3.496-1.707-7.08-2.549-10.623C0,552.176,0,547.51,0,542.844z M14.875,557.816c50.933-15.249,100.997-28.221,150.058-46.99
		c-1.222-0.504-1.618-0.774-2.041-0.827c-13.037-1.633-26.068-3.328-39.128-4.759c-1.711-0.187-3.785,0.657-5.331,1.609
		c-9.901,6.101-20.433,9.628-32.179,8.045c-1.51-0.204-3.48-1.613-4.013-2.952c-0.408-1.022,0.769-3.202,1.857-4.186
		c2.301-2.082,5.005-3.72,7.911-5.803c-21.658-5.141-40.586,1.311-59.365,11.277c10.215,6.333,13.26,12.359,9.271,19.635
		c-1.879,3.427-5.181,6.568-8.586,8.56c-6.672,3.903-13.629,2.489-21.362-2.359C13.052,546.072,13.899,551.528,14.875,557.816z
		 M142.695,611.773c-0.148,6.922,3.104,12.989,9.005,16.802c12.399,8.011,30.887,2.832,37.253-10.488
		c3.183-6.66,2.942-13.239-1.13-19.457c-5.306-8.103-16.654-11.52-27.189-8.352C150.155,593.429,142.902,602.12,142.695,611.773z
		 M76.444,554.87c-6.232,0.23-12.935,2.689-18.267,8.285c-11.188,11.745-6.363,29.3,9.353,33.214
		c3.901,0.972,8.318,0.94,12.312,0.267c11.699-1.971,20.796-13.007,19.845-23.363C98.717,562.695,89.538,554.97,76.444,554.87z
		 M123.425,592.568c9.054,0.089,17.317-7.153,17.369-15.224c0.046-7.264-6.541-13.168-14.731-13.202
		c-9.267-0.039-17.22,6.979-17.239,15.213C108.806,586.771,115.121,592.486,123.425,592.568z M211.476,589.247
		c8.93,0.048,16.4-6.536,16.55-14.588c0.142-7.637-6.447-13.714-14.754-13.609c-8.779,0.111-16.274,6.986-16.316,14.966
		C196.917,583.51,203.163,589.202,211.476,589.247z M71.737,648.047c7.853-0.077,14.303-6.292,14.183-13.665
		c-0.114-6.975-6.076-12.544-13.432-12.545c-7.778-0.001-14.375,6.166-14.438,13.498C57.988,642.527,64.012,648.123,71.737,648.047z
		 M133.063,540.011c13.902,7.3,36.497,1.419,44.016-11.145C162.387,532.586,148.15,536.191,133.063,540.011z"/>
	<path style="fill:#CF000F;" d="M764.248,884.025c0,1.749,0,3.498,0,5.247c-0.001,67.658,0.038,135.316-0.022,202.974
		c-0.022,25.276-14.848,45.009-38.25,50.883c-4.311,1.082-8.883,1.568-13.335,1.573c-78.656,0.092-157.313,0.099-235.97,0.05
		c-29.724-0.019-51.705-22.099-51.728-51.879c-0.041-53.826-0.012-107.653-0.013-161.479c0-1.779,0-3.558,0-6.813
		c-1.771,2.827-2.84,4.401-3.777,6.049c-23.787,41.814-47.904,83.446-71.213,125.526c-14.785,26.691-57.104,37.701-82.126,15.221
		c-5.08-4.564-9.774-10.317-12.654-16.456c-39.856-84.954-79.473-170.021-118.889-255.181c-11.77-25.429-0.689-54.296,24.435-66.889
		c18.759-9.402,37-10.034,54.975,1.52c8.352,5.369,14.16,12.954,18.329,21.936c23.606,50.859,47.276,101.689,70.928,152.527
		c0.699,1.502,1.446,2.981,2.441,5.027c1.234-1.972,2.29-3.53,3.218-5.161c27.582-48.465,55.245-96.885,82.661-145.444
		c7.494-13.274,17.78-22.63,32.588-26.855c1.49-0.425,3.094-1.904,3.826-3.318c10.084-19.487,26.079-29.206,47.95-29.214
		c78.49-0.028,156.98,0.057,235.469-0.21c3.917-0.013,7.976-2.64,11.709-4.558c19.653-10.099,38.722-9.274,56.26,4.176
		c5.878,4.508,10.758,10.998,14.503,17.498c27.921,48.462,55.442,97.154,83.094,145.771c0.876,1.541,1.806,3.052,3.114,5.255
		c1.219-2.514,2.165-4.398,3.054-6.307c23.375-50.233,46.737-100.472,70.118-150.701c10.223-21.962,29.802-33.908,53.06-30.745
		c22.041,2.998,42.874,16.891,48.323,41.568c2.577,11.67,0.903,22.768-4.119,33.545c-23.962,51.428-47.852,102.889-71.769,154.337
		c-14.869,31.986-29.854,63.919-44.571,95.975c-9.039,19.689-24.062,31.38-45.683,31.745c-21.763,0.368-39.867-7.944-51.184-27.942
		c-23.61-41.724-47.367-83.365-71.07-125.036c-0.857-1.506-1.789-2.969-2.686-4.452C764.911,883.865,764.58,883.945,764.248,884.025
		z"/>
	<path style="fill:#CF000F;" d="M594.661,676.019c-73.253,0.002-132.621-59.313-132.54-132.422
		c0.081-73.06,59.794-132.631,132.712-132.395c73.262,0.237,132.309,59.578,132.155,132.814
		C726.834,617.065,667.739,676.017,594.661,676.019z"/>
	<path style="fill:#CF000F;" d="M864.253,282.872c-9.521-49.747-18.986-99.2-28.63-149.589
		c-13.589,7.365-26.678,14.459-39.868,21.608c-7.758-17.728-15.284-34.925-22.875-52.269c0.613-0.483,1.055-0.977,1.608-1.248
		c27.057-13.227,54.176-26.327,81.135-39.751c4.46-2.221,7.523-1.804,11.02,1.461c3.026,2.825,6.419,5.338,9.923,7.558
		c11.539,7.311,24.927,5.34,33.672-5.169c3.275-3.935,6.114-8.362,8.418-12.935c1.976-3.92,4.453-5.004,8.646-4.604
		c20.559,1.958,41.141,3.683,61.717,5.47c10.413,0.904,20.83,1.766,30.715,2.603c0,18.672,0,36.911,0,55.99
		c-15.845-1.478-30.672-2.86-46.526-4.338c9.756,50.007,19.36,99.237,29.065,148.982
		C956.511,265.338,910.974,273.993,864.253,282.872z"/>
	<path style="fill:#CF000F;" d="M581.215,154.229c-50.41-16.577-100.895-33.178-150.577-49.516
		c0.483-8.696,1.872-16.835,1.199-24.801c-1.971-23.327-25.826-40.081-47.691-33.976c-12.656,3.533-19.955,12.625-24.221,24.535
		c-1.104,3.083-1.893,6.278-2.812,9.373c-18.947-2.657-28.673-21.82-19.481-37.859c0.246-0.429,0.479-0.909,0.84-1.224
		c18.764-16.377,39.3-28.177,65.504-24.765c5.594,0.728,11.092,2.867,16.656,2.954c5.281,0.082,11.215-0.462,15.791-2.814
		c39.171-20.139,79.105-20.691,119.846-5.739c36.167,13.274,63.91,37.427,85.638,68.483c14.101,20.154,26.557,41.459,39.725,62.264
		c0.521,0.823,1.183,1.857,1.092,2.72c-1.064,10.041-2.828,19.892-10.72,27.185c-1.641,1.517-3.909,2.607-6.079,3.254
		c-8.129,2.425-11.965-0.498-11.956-8.872c0.007-6.456,1.005-13.07-0.064-19.337c-2.697-15.798-16.017-27.748-31.298-29.228
		c-17.042-1.65-30.541,6.498-37,22.688C583.772,144.145,582.736,149.055,581.215,154.229z M549.098,61.832
		c3.234-11.905,6.292-23.463,9.555-34.962c0.795-2.801-0.294-4.037-2.655-4.819c-9.76-3.233-19.346-7.224-29.322-9.524
		c-19.214-4.43-38.338-3.72-56.712,4.329c-1.624,0.712-3.49,2.19-4.058,3.745c-1.635,4.479-2.662,9.179-4.139,14.563
		C490.893,44.058,519.734,52.865,549.098,61.832z M563.003,66.801c17.925,5.903,35.939,11.835,54.917,18.084
		c-6.593-26.525-24.985-41.429-46.779-54.953C568.333,42.652,565.735,54.424,563.003,66.801z"/>
	<path style="fill:#CF000F;" d="M1191.561,413.511c-14.62,23.19-22.977,48.411-33.723,72.516
		c-11.8,26.472-23.94,52.749-40.908,76.435c-10.956,15.294-23.286,29.318-40.41,37.9c-7.02,3.518-14.796,5.525-23.599,8.717
		c3.02-42.742,19.764-78.495,41.165-112.745c-6.138,2.278-27.625,26.65-42.59,48.015c-12.437,17.756-22.926,36.605-31.7,56.897
		c-10.259-6.414-15.25-15.604-16.9-26.738c-2.884-19.466,2.686-37.387,11.418-54.313c17.467-33.861,43.269-58.567,79.804-71.422
		c30.743-10.817,61.276-22.233,91.904-33.377C1187.684,414.792,1189.37,414.255,1191.561,413.511z"/>
	<path style="fill:#CF000F;" d="M1042.737,470.619c-2-6.191-3.722-11.521-5.443-16.85c-0.427-0.064-0.854-0.127-1.28-0.191
		c-0.696,5.939-2.035,11.891-1.905,17.811c0.127,5.766-1.811,9.894-5.452,14.17c-5.804,6.815-10.852,14.274-16.46,21.782
		c-6.728-10.07-9.943-21.432-11.277-33.33c-3.597-32.087,3.963-60.957,24.469-86.406c15.15-18.802,29.537-38.219,44.271-57.357
		c1.007-1.308,2.068-2.574,3.329-4.138c0.897,8.369,1.509,16.371,2.651,24.297c3.133,21.743,6.678,43.428,9.66,65.19
		c1.127,8.227,1.252,16.6,1.587,24.916c0.052,1.303-0.9,3.473-1.921,3.869C1069.574,450.346,1055.891,459.054,1042.737,470.619z"/>
	<path style="fill:#CF000F;" d="M157.011,260.273c8.021-29.646,5.176-57.923-9.028-85.382c24.662-10.694,49.534-12.501,75.779-5.147
		c-10.954,33.881-21.774,67.35-32.803,101.463C179.57,267.538,168.437,263.953,157.011,260.273z"/>
	<path style="fill:#CF000F;" d="M156.525,377.87c-19.198-3.645-45.864-25.503-58.46-47.893c12.956-6.813,24.74-15.268,34.583-26.232
		c9.895-11.023,17.208-23.6,22.524-37.766c11.319,3.657,22.334,7.216,33.934,10.963C178.181,310.785,167.343,344.358,156.525,377.87
		z"/>
	<path style="fill:#CF000F;" d="M229.35,171.868c22.731,6.717,49.126,28.725,58.146,48.403c-13.085,6.65-24.78,15.275-34.626,26.289
		c-9.76,10.917-16.991,23.353-22.253,37.505c-11.34-3.662-22.46-7.254-33.99-10.978C207.619,239.087,218.445,205.6,229.35,171.868z"
		/>
	<path style="fill:#CF000F;" d="M194.799,278.787c11.435,3.692,22.448,7.248,33.877,10.938c-3.637,14.48-5.459,28.866-3.786,43.58
		c1.652,14.533,5.897,28.232,12.88,41.786c-24.743,10.758-49.563,12.564-75.728,5.175
		C172.984,346.37,183.828,312.774,194.799,278.787z"/>
	<path style="fill:#CF000F;" d="M297.864,305.799c-20.451-6.614-40.631-13.14-60.742-19.644
		c2.521-19.722,31.257-51.982,53.333-60.213C302.566,243.136,306.308,281.846,297.864,305.799z"/>
	<path style="fill:#CF000F;" d="M87.943,244.245c20.481,6.606,40.662,13.115,61.462,19.824
		c-10.192,27.449-28.103,47.241-53.786,60.248C83.646,305.559,78.832,270.209,87.943,244.245z"/>
	<path style="fill:#CF000F;" d="M296.353,311.583c-10.167,27.278-27.629,47.216-53.147,60.93
		c-13.511-26.047-16.583-52.6-8.672-80.903C255.219,298.293,275.423,304.82,296.353,311.583z"/>
	<path style="fill:#CF000F;" d="M142.524,177.441c13.506,26.001,16.444,52.481,8.727,80.934
		c-20.68-6.666-40.988-13.212-61.85-19.937C99.428,211.299,116.882,191.351,142.524,177.441z"/>
	<path style="fill:#CF000F;" d="M427.129,82.034c-0.251,18.193-12.101,31.056-28.377,30.802
		c-17.756-0.278-32.562-14.93-32.354-32.019c0.219-18.011,11.879-30.575,28.135-30.317C413.911,50.809,427.38,63.839,427.129,82.034
		z"/>
	<path style="fill:#CF000F;" d="M622.862,186.142c-17.798,0.099-33.588-15.026-33.527-32.116
		c0.061-17.106,12.093-30.101,28.011-30.255c18.691-0.18,32.524,12.685,32.596,30.315
		C650.018,172.463,638.535,186.054,622.862,186.142z"/>
</g>
</svg>
